<?xml version="1.0" encoding="UTF-8" ?>
<!DOCTYPE svg PUBLIC "-//W3C//DTD SVG 1.1//EN" "http://www.w3.org/Graphics/SVG/1.1/DTD/svg11.dtd">
<svg width="400pt" height="400pt" viewBox="0 0 400 400" version="1.1" xmlns="http://www.w3.org/2000/svg">
<path fill="#ffffff" d=" M 0.00 0.00 L 400.00 0.00 L 400.00 400.00 L 0.00 400.00 L 0.00 0.00 Z" />
<path fill="#2b2b2b" d=" M 184.13 46.74 C 185.14 45.96 186.14 45.18 187.12 44.37 L 186.69 46.44 C 188.30 46.24 190.11 43.45 191.75 45.10 C 190.81 45.95 189.76 46.68 188.83 47.55 C 191.01 48.61 193.51 48.43 195.86 48.69 C 195.72 48.26 195.45 47.40 195.32 46.96 C 195.67 47.33 196.39 48.05 196.74 48.42 C 196.95 48.06 197.37 47.35 197.58 47.00 C 198.00 48.29 198.41 49.58 198.82 50.87 C 199.36 50.63 200.46 50.16 201.00 49.92 L 200.17 51.64 C 200.97 51.45 202.59 51.07 203.39 50.89 C 203.32 51.29 203.16 52.10 203.09 52.50 C 205.61 52.32 205.77 53.87 205.11 55.88 C 205.34 55.62 205.80 55.10 206.03 54.84 C 208.84 57.10 212.74 55.86 215.63 57.79 C 216.07 57.58 216.95 57.14 217.39 56.93 C 216.86 57.97 216.32 59.01 215.77 60.04 C 217.82 60.87 221.78 60.52 222.20 63.10 L 222.08 63.95 C 221.61 66.88 220.14 63.02 219.15 62.31 C 219.75 63.51 220.34 64.71 220.92 65.92 C 221.37 65.83 222.26 65.65 222.70 65.56 L 223.05 64.93 C 222.92 62.09 224.92 64.34 226.02 65.08 L 226.75 65.64 L 225.31 67.89 C 226.31 67.60 228.32 67.02 229.32 66.73 C 228.75 67.35 227.60 68.60 227.02 69.22 C 228.73 70.06 230.66 69.16 232.35 70.06 L 231.07 72.72 C 232.38 72.14 233.70 71.57 235.02 71.00 C 234.49 71.54 233.45 72.63 232.93 73.17 C 234.64 73.49 236.34 73.91 238.03 74.36 C 238.17 75.04 238.45 76.40 238.59 77.09 C 239.10 76.84 240.12 76.36 240.63 76.11 L 240.11 78.09 L 241.86 76.89 L 242.28 78.42 C 241.46 78.46 239.84 78.53 239.02 78.57 C 239.09 78.81 239.24 79.29 239.31 79.54 C 241.19 79.39 243.07 79.31 244.95 79.18 L 245.43 80.54 C 246.34 79.98 247.27 79.42 248.19 78.86 C 247.91 79.22 247.35 79.93 247.06 80.29 C 247.23 80.90 247.56 82.13 247.72 82.75 C 248.40 82.04 249.08 81.33 249.76 80.61 L 248.53 82.87 L 252.06 82.78 C 251.27 82.89 249.69 83.10 248.90 83.21 C 251.13 84.80 253.45 86.26 255.81 87.67 C 255.72 86.94 255.54 85.50 255.45 84.77 C 255.92 87.13 258.22 90.44 260.88 88.06 C 260.23 88.69 259.55 89.32 258.80 89.84 C 258.79 90.61 258.77 92.17 258.76 92.95 C 259.26 92.49 260.27 91.57 260.78 91.11 C 261.92 91.89 263.14 92.55 264.49 92.92 L 263.79 94.32 C 264.78 94.37 265.78 94.41 266.78 94.45 C 266.27 94.89 265.24 95.78 264.73 96.22 C 266.77 95.42 268.01 96.64 269.06 98.07 C 270.31 98.19 271.55 98.36 272.79 98.57 C 272.49 99.34 272.16 100.10 271.80 100.85 C 273.10 101.12 274.39 101.42 275.68 101.75 C 276.22 101.58 276.77 101.40 277.33 101.23 C 277.79 102.23 278.25 103.22 278.72 104.21 C 281.29 103.86 283.31 104.92 284.52 107.19 L 286.11 105.79 C 286.09 106.97 286.06 108.15 286.05 109.33 C 286.71 109.06 288.03 108.53 288.69 108.27 C 288.55 108.71 288.25 109.61 288.10 110.06 C 288.97 110.17 290.72 110.40 291.59 110.52 C 292.26 111.55 292.92 112.59 293.59 113.62 C 294.19 113.63 295.39 113.63 295.99 113.63 C 296.31 115.57 297.98 115.79 299.67 115.85 C 299.66 116.48 299.66 117.74 299.66 118.36 C 301.14 118.46 302.62 118.56 304.11 118.65 C 303.87 119.10 303.38 120.00 303.14 120.45 C 305.01 120.79 306.87 121.16 308.76 121.45 L 308.17 122.96 C 308.86 122.84 310.26 122.62 310.96 122.51 C 311.40 123.81 311.51 125.19 311.63 126.56 C 313.32 127.26 314.99 127.99 316.68 128.70 C 316.55 129.35 316.29 130.65 316.16 131.30 C 318.35 131.62 321.62 131.57 322.19 134.33 C 325.39 135.31 326.46 139.22 329.99 139.84 C 330.58 140.73 331.17 141.63 331.76 142.53 C 333.50 142.31 335.27 142.21 334.70 144.65 C 335.37 144.64 336.71 144.61 337.38 144.59 C 337.39 144.87 337.41 145.43 337.42 145.70 C 339.28 146.98 341.07 149.61 343.38 147.56 C 343.30 148.70 343.27 149.83 343.27 150.97 C 342.93 151.16 342.25 151.54 341.91 151.73 C 342.86 151.54 344.75 151.17 345.69 150.99 L 345.12 152.89 C 345.52 152.74 346.33 152.45 346.73 152.30 C 349.22 155.18 353.26 156.33 355.15 159.77 C 358.70 161.26 360.17 165.33 361.93 168.49 L 363.10 167.89 C 363.24 169.95 362.87 171.99 362.34 173.97 C 359.76 174.11 356.94 174.29 354.87 172.43 C 355.43 174.49 358.83 179.46 353.37 175.40 C 353.31 176.09 353.19 177.48 353.13 178.18 C 352.34 177.86 350.75 177.22 349.95 176.91 C 349.76 177.32 349.37 178.16 349.17 178.57 C 346.89 178.54 344.58 179.21 342.33 178.83 C 343.89 177.64 343.20 176.05 342.41 174.46 C 341.87 175.92 341.61 178.20 339.60 178.30 C 335.71 178.57 331.78 179.13 327.91 178.46 C 327.67 179.03 327.19 180.17 326.95 180.74 C 325.25 180.07 321.69 183.56 325.67 182.10 C 326.09 182.56 326.91 183.47 327.33 183.93 C 326.69 183.73 325.41 183.33 324.77 183.12 L 324.85 185.03 C 325.46 185.00 326.69 184.93 327.31 184.90 C 325.51 186.51 326.29 188.92 325.97 191.01 L 326.69 190.99 C 326.53 192.44 326.44 193.90 326.35 195.37 C 325.16 195.08 323.98 194.81 322.79 194.55 C 322.91 195.66 323.03 196.78 323.16 197.89 C 323.56 197.58 324.35 196.96 324.74 196.65 C 325.01 197.35 325.54 198.73 325.81 199.43 C 326.10 200.75 326.44 202.06 326.60 203.41 C 325.82 203.47 324.25 203.60 323.46 203.66 C 324.23 204.50 325.01 205.33 325.80 206.16 C 324.17 210.23 324.92 214.82 323.65 219.03 L 322.01 217.87 C 322.27 218.94 322.79 221.09 323.05 222.16 C 323.66 222.22 324.86 222.34 325.46 222.40 C 324.89 222.59 323.73 222.96 323.15 223.14 C 323.31 223.59 323.61 224.48 323.76 224.92 C 323.18 224.88 322.02 224.78 321.43 224.74 C 320.96 225.32 320.03 226.47 319.56 227.05 C 320.47 227.22 322.29 227.57 323.20 227.74 C 322.73 227.98 321.81 228.45 321.34 228.69 C 321.78 229.68 322.21 230.67 322.66 231.67 C 320.87 232.39 319.52 233.77 321.91 235.00 C 321.64 236.52 321.40 238.04 321.13 239.56 C 320.38 238.28 319.60 237.02 318.80 235.78 C 319.31 237.02 319.86 238.26 320.50 239.46 C 320.57 240.25 320.66 241.04 320.76 241.83 C 320.01 243.92 319.25 246.02 317.87 247.80 L 319.55 247.28 C 321.31 249.25 321.09 251.76 319.28 253.62 C 319.78 253.60 320.77 253.56 321.27 253.54 C 320.77 254.13 319.78 255.33 319.29 255.93 C 319.40 256.45 319.62 257.50 319.73 258.02 C 316.42 258.52 319.53 259.93 320.12 260.97 C 319.75 261.46 319.03 262.45 318.67 262.95 L 320.18 263.03 C 319.98 263.74 319.57 265.15 319.36 265.86 C 317.46 265.07 314.47 263.53 313.18 266.05 C 313.98 267.71 316.28 266.14 317.48 265.64 C 318.09 267.37 320.04 268.82 319.41 270.83 C 318.71 270.42 317.31 269.58 316.61 269.16 C 317.59 270.01 318.62 270.79 319.57 271.71 C 319.34 272.85 319.08 274.00 318.79 275.14 C 318.05 275.22 316.57 275.40 315.82 275.48 C 316.64 275.52 318.27 275.59 319.09 275.63 C 319.06 277.85 318.89 280.10 318.07 282.20 C 318.31 282.99 318.78 284.57 319.02 285.36 L 317.54 284.98 C 318.35 287.99 314.57 290.46 318.59 292.93 L 316.35 292.28 C 317.29 293.34 318.20 294.39 319.13 295.47 C 318.20 295.53 316.33 295.66 315.39 295.72 C 316.54 296.02 317.69 296.30 318.85 296.55 C 318.55 297.27 317.94 298.70 317.63 299.41 C 318.54 300.18 319.52 300.88 320.59 301.41 C 319.78 302.56 318.89 303.65 318.16 304.86 L 317.19 304.43 C 317.13 304.71 317.00 305.27 316.94 305.55 C 317.42 305.41 318.39 305.12 318.87 304.97 C 319.22 307.51 319.38 310.08 319.62 312.63 C 319.09 312.17 318.02 311.23 317.48 310.76 C 317.80 312.11 318.13 313.46 318.48 314.81 C 318.06 315.14 317.23 315.79 316.81 316.12 C 317.24 316.46 318.11 317.13 318.54 317.47 C 317.93 320.61 318.59 323.72 318.93 326.84 C 318.54 329.33 318.34 331.84 318.58 334.36 C 316.87 334.37 315.16 334.43 313.45 334.47 L 313.57 335.52 C 309.26 335.61 304.95 335.63 300.65 335.61 C 299.46 336.58 298.26 337.55 297.06 338.51 C 297.18 337.73 297.43 336.18 297.55 335.40 C 296.06 335.56 294.44 337.06 293.02 335.75 C 290.66 335.42 288.25 334.84 285.87 335.26 C 284.13 335.46 282.17 336.33 280.75 334.82 C 280.43 334.84 279.81 334.88 279.50 334.90 C 279.25 334.37 278.77 333.32 278.53 332.80 C 278.53 333.40 278.55 334.61 278.56 335.22 L 276.10 334.25 C 276.22 334.81 276.46 335.93 276.58 336.48 C 275.57 336.43 274.58 336.39 273.58 336.36 C 272.61 335.85 271.63 335.35 270.65 334.88 C 270.58 335.69 270.44 337.33 270.38 338.15 C 269.97 336.94 269.60 335.70 269.28 334.48 C 267.05 336.22 264.22 335.54 261.63 335.59 C 261.34 334.67 261.05 333.75 260.76 332.83 C 260.67 333.51 260.51 334.85 260.43 335.53 C 257.27 335.47 254.11 335.40 250.97 335.69 C 249.14 336.24 247.25 336.48 245.36 336.72 L 245.76 335.70 C 244.07 335.64 242.36 335.47 240.92 334.51 L 241.82 335.87 C 240.93 335.81 239.16 335.68 238.27 335.62 L 238.55 333.27 C 238.19 334.01 237.46 335.48 237.10 336.21 C 236.05 334.79 235.71 333.07 235.56 331.36 C 234.78 331.51 233.21 331.80 232.43 331.95 C 233.01 332.27 234.18 332.90 234.77 333.21 C 234.90 333.90 235.18 335.26 235.32 335.94 C 234.78 335.50 233.71 334.61 233.17 334.16 L 233.81 335.97 C 231.73 335.60 229.62 335.32 227.64 334.55 C 227.36 334.86 226.80 335.47 226.51 335.77 L 224.59 334.14 C 224.56 334.79 224.51 336.09 224.48 336.74 C 223.05 335.86 221.40 334.98 220.75 333.29 C 220.45 334.39 219.86 336.61 219.56 337.72 C 219.18 337.00 218.81 336.28 218.47 335.55 C 213.62 335.50 208.66 336.12 203.99 334.49 C 203.10 335.21 202.25 335.98 201.34 336.68 C 201.11 336.10 200.65 334.93 200.41 334.35 C 199.89 334.58 198.83 335.04 198.30 335.27 C 197.35 334.92 196.40 334.58 195.45 334.26 L 195.58 332.93 C 194.69 333.35 192.92 334.21 192.04 334.64 C 191.88 334.90 191.57 335.43 191.41 335.70 C 191.11 334.78 190.50 332.94 190.19 332.02 C 189.62 332.90 188.48 334.65 187.92 335.53 C 187.81 334.97 187.59 333.85 187.48 333.30 C 184.17 334.26 180.74 334.68 177.30 334.40 L 177.55 335.48 C 173.36 335.06 169.15 335.42 164.96 335.54 C 156.17 335.50 147.23 334.48 138.56 336.34 C 138.84 335.26 139.11 334.18 139.42 333.12 C 138.90 333.26 137.87 333.56 137.35 333.70 C 137.30 334.16 137.21 335.08 137.17 335.54 C 134.23 335.73 131.33 336.27 128.47 336.95 C 128.98 335.11 128.09 332.77 125.90 333.71 C 125.80 334.20 125.60 335.18 125.50 335.66 C 125.21 336.08 124.64 336.93 124.35 337.35 C 123.91 337.72 123.01 338.47 122.57 338.85 C 122.48 338.09 122.31 336.57 122.22 335.82 C 121.93 336.23 121.36 337.06 121.08 337.48 C 120.20 336.60 119.29 335.74 118.39 334.89 C 118.43 335.25 118.53 335.98 118.57 336.34 C 116.30 336.80 114.06 337.38 111.83 338.01 C 107.85 338.78 103.78 338.24 99.81 337.73 C 99.42 339.81 97.95 339.57 96.55 338.78 C 91.69 338.38 86.80 338.29 81.93 338.26 C 81.59 332.86 81.54 327.46 81.74 322.07 C 81.29 318.01 82.56 313.99 81.61 309.96 C 83.13 308.67 84.62 307.33 86.02 305.91 C 84.49 307.05 83.02 308.27 81.53 309.48 C 82.04 306.70 82.37 303.90 82.56 301.09 L 81.40 301.68 C 80.82 299.79 80.32 297.87 79.80 295.97 C 80.52 293.25 80.48 290.15 78.30 288.08 C 79.05 287.71 79.82 287.36 80.59 287.04 L 80.70 285.94 C 79.42 285.55 78.53 284.58 77.56 283.74 C 77.67 279.43 77.26 275.13 77.38 270.83 C 76.76 267.96 76.49 264.98 75.28 262.28 L 76.60 262.74 C 76.46 261.76 76.19 259.80 76.05 258.81 C 76.53 259.35 77.50 260.41 77.98 260.94 C 78.71 259.06 79.02 255.74 76.84 254.84 C 76.41 254.94 75.54 255.14 75.11 255.24 C 75.52 255.91 76.33 257.27 76.74 257.94 C 76.49 257.80 75.99 257.52 75.74 257.37 C 75.33 256.47 74.96 255.55 74.62 254.63 C 74.92 254.40 75.52 253.95 75.82 253.73 C 75.68 252.70 75.36 251.72 74.88 250.78 C 75.41 251.29 76.46 252.30 76.99 252.80 C 76.97 251.98 76.93 250.33 76.91 249.51 C 76.11 249.56 74.50 249.66 73.70 249.71 C 74.42 249.46 75.87 248.97 76.60 248.72 L 76.71 247.63 L 74.85 247.88 C 75.30 247.44 76.22 246.57 76.67 246.14 C 75.61 244.21 74.75 242.19 73.88 240.18 L 75.29 239.85 C 74.54 238.60 73.80 237.35 73.06 236.10 C 73.86 236.16 75.45 236.27 76.25 236.32 C 75.40 236.06 74.56 235.81 73.71 235.56 C 73.32 234.27 72.90 232.99 72.44 231.72 C 72.40 229.57 72.44 227.42 72.63 225.27 L 70.35 226.03 C 70.86 225.33 71.87 223.94 72.37 223.25 L 74.00 223.01 C 72.79 222.72 71.59 222.29 70.33 222.44 C 70.63 217.59 70.22 212.70 69.36 207.92 C 69.71 207.42 70.40 206.41 70.75 205.90 C 70.36 205.72 69.57 205.37 69.18 205.19 C 69.64 204.70 70.55 203.74 71.01 203.25 L 68.88 202.77 C 69.26 200.74 69.78 198.74 70.45 196.79 L 67.69 199.34 C 68.10 198.16 68.54 196.98 69.01 195.83 C 68.57 195.88 67.68 195.99 67.23 196.04 C 67.74 194.52 68.21 192.99 68.66 191.46 L 66.83 191.95 C 66.78 191.25 66.68 189.87 66.63 189.18 L 65.05 191.06 C 65.15 190.29 65.35 188.75 65.45 187.97 C 66.15 188.59 66.86 189.19 67.58 189.78 L 68.54 187.96 L 67.94 187.01 C 67.42 186.89 66.39 186.65 65.88 186.53 C 66.52 186.04 67.80 185.06 68.44 184.58 C 67.59 184.61 65.88 184.67 65.03 184.70 C 65.47 183.92 66.36 182.37 66.80 181.60 C 63.85 184.07 59.97 182.25 56.66 182.14 C 58.52 180.53 61.05 180.70 63.32 180.28 C 61.41 180.16 59.49 180.23 57.58 180.37 C 56.87 181.93 55.20 183.27 53.33 182.42 C 53.35 181.33 53.36 180.24 53.49 179.16 C 52.74 179.94 51.93 180.70 51.31 181.60 C 52.18 182.04 53.04 182.48 53.89 182.95 C 51.80 182.94 49.74 183.28 47.70 183.68 C 47.63 184.37 47.49 185.75 47.42 186.43 C 45.85 186.70 44.27 186.95 42.70 187.19 C 42.79 186.79 42.97 185.99 43.06 185.58 C 40.17 185.42 37.43 184.00 34.50 184.54 C 35.27 183.41 35.42 182.03 35.66 180.72 C 35.05 180.59 33.81 180.31 33.19 180.18 C 33.34 179.59 33.64 178.43 33.80 177.85 C 33.44 177.78 32.73 177.65 32.37 177.58 L 32.78 176.21 L 31.34 176.58 C 31.86 174.74 31.95 172.64 33.22 171.12 C 35.14 168.93 36.79 166.52 38.38 164.09 C 40.75 164.27 43.13 164.32 45.51 164.20 C 43.95 163.47 42.40 162.74 40.85 162.02 C 42.62 161.09 44.35 160.09 46.10 159.14 C 46.91 157.72 48.49 157.39 49.95 157.04 C 49.81 156.58 49.52 155.65 49.38 155.18 C 49.90 155.29 50.92 155.50 51.43 155.61 L 51.53 154.45 C 51.87 154.47 52.54 154.49 52.88 154.50 C 54.77 151.31 57.74 148.74 61.70 149.34 C 61.52 148.56 61.34 147.79 61.16 147.02 C 62.53 146.60 63.85 146.02 64.99 145.12 C 65.32 144.67 65.98 143.76 66.31 143.31 C 68.62 144.24 69.90 142.00 71.73 141.14 L 71.11 140.68 C 74.05 139.11 76.33 136.68 78.55 134.26 C 79.12 134.18 80.27 134.01 80.84 133.93 C 80.69 133.57 80.40 132.83 80.25 132.46 C 81.80 131.56 83.42 130.75 85.24 130.58 C 85.28 130.22 85.37 129.50 85.41 129.14 C 85.97 129.22 87.08 129.40 87.64 129.48 C 87.50 129.02 87.23 128.11 87.10 127.65 C 88.04 127.11 88.98 126.56 89.91 126.01 C 91.46 124.64 92.90 122.60 95.23 123.75 C 94.35 123.31 90.86 121.09 94.47 121.70 C 95.20 121.41 96.66 120.84 97.40 120.56 C 97.12 120.32 96.58 119.86 96.31 119.62 C 97.16 118.47 97.96 117.27 98.66 116.02 C 99.07 115.93 99.89 115.75 100.30 115.66 C 101.08 114.46 102.29 113.70 103.57 113.13 L 103.32 112.22 L 104.79 112.85 C 104.85 112.12 104.96 110.64 105.01 109.91 C 105.93 110.37 107.77 111.30 108.68 111.77 L 107.36 109.50 C 108.78 108.52 110.16 107.49 111.52 106.43 C 111.73 106.54 112.16 106.78 112.38 106.90 C 113.25 105.72 114.28 104.65 115.65 104.08 C 116.09 102.83 116.78 101.74 118.04 101.22 C 119.06 102.54 120.13 103.83 121.23 105.08 L 121.47 104.72 C 120.78 103.89 119.40 102.22 118.71 101.39 L 122.01 103.04 C 120.86 101.93 118.17 100.98 120.33 98.83 L 117.91 99.75 C 120.51 98.71 123.30 94.61 125.98 97.38 C 125.86 96.78 125.60 95.56 125.47 94.96 C 126.22 95.06 127.71 95.27 128.46 95.37 C 128.25 94.63 127.82 93.16 127.61 92.42 C 129.45 92.41 131.28 92.38 133.12 92.42 C 132.41 92.10 130.97 91.47 130.26 91.15 C 132.26 90.31 134.58 88.13 136.39 90.62 C 136.36 90.05 136.29 88.91 136.26 88.34 C 137.25 88.23 138.24 88.12 139.23 87.99 C 138.41 87.62 136.75 86.88 135.93 86.51 C 139.82 87.08 141.54 83.00 144.90 81.78 C 145.76 81.21 146.63 80.63 147.49 80.06 L 149.01 81.22 C 148.93 80.30 148.77 78.45 148.69 77.52 C 149.38 78.07 150.76 79.15 151.45 79.70 C 151.53 79.09 151.69 77.87 151.77 77.26 C 152.32 77.24 153.44 77.18 153.99 77.16 C 153.42 76.54 152.26 75.32 151.68 74.70 C 153.08 73.50 154.81 73.44 156.53 73.84 C 156.35 73.16 155.97 71.81 155.78 71.13 C 157.41 71.19 159.04 71.23 160.67 71.25 C 160.18 70.81 159.20 69.95 158.70 69.51 C 160.59 69.12 161.70 67.56 162.81 66.14 C 162.77 66.65 162.70 67.67 162.66 68.18 L 163.99 68.04 C 163.99 67.51 164.00 66.44 164.00 65.90 L 165.95 66.60 C 165.76 65.95 165.39 64.65 165.21 64.00 C 165.82 63.95 167.04 63.86 167.65 63.81 C 167.57 63.50 167.42 62.88 167.35 62.57 C 168.76 61.89 170.17 61.19 171.56 60.47 C 172.11 58.31 174.34 58.34 176.07 57.83 C 175.78 57.40 175.20 56.52 174.91 56.08 C 176.23 55.50 177.57 54.94 178.91 54.41 L 178.47 53.60 C 179.61 52.95 180.75 52.31 181.91 51.69 C 181.53 50.91 181.15 50.12 180.79 49.33 C 181.80 49.25 183.83 49.10 184.85 49.03 C 184.67 48.46 184.31 47.31 184.13 46.74 Z" />
<path fill="#ffffff" d=" M 194.81 76.05 C 195.13 75.56 195.76 74.59 196.08 74.10 C 196.15 74.77 196.27 76.13 196.34 76.80 C 197.10 76.74 198.64 76.62 199.41 76.56 C 199.41 76.01 199.40 74.90 199.40 74.35 C 201.33 75.80 203.49 76.49 205.88 76.43 L 203.81 77.77 C 204.40 77.99 205.58 78.44 206.18 78.66 C 207.10 79.27 208.06 79.84 209.04 80.37 L 209.34 82.25 C 209.62 81.67 210.18 80.52 210.47 79.95 C 209.57 82.70 212.68 83.23 214.40 84.40 C 215.03 84.24 216.30 83.91 216.93 83.75 C 216.78 84.10 216.47 84.79 216.32 85.13 C 217.78 85.09 218.74 85.77 219.18 87.17 C 221.04 87.58 223.57 86.80 224.60 88.99 C 223.95 89.16 222.67 89.50 222.03 89.68 C 223.42 89.62 224.82 89.56 226.22 89.52 C 226.81 90.69 227.43 91.86 228.03 93.03 C 228.42 93.22 229.20 93.60 229.59 93.79 L 227.92 91.24 C 230.26 93.44 233.09 94.17 236.14 93.38 C 235.34 93.64 233.74 94.14 232.94 94.39 C 234.62 95.01 236.28 95.75 238.04 96.14 C 238.85 95.43 239.64 94.69 240.41 93.93 C 239.60 95.13 238.76 96.32 237.95 97.52 C 242.76 99.27 247.69 101.00 251.58 104.45 C 251.56 104.59 251.50 104.86 251.47 105.00 C 253.30 105.77 254.78 107.10 256.36 108.27 C 258.14 107.44 259.45 105.88 261.04 104.74 C 259.99 105.87 258.87 106.92 257.77 107.99 C 258.20 108.77 259.07 110.34 259.51 111.12 C 261.13 112.03 262.73 112.97 264.36 113.86 C 265.65 115.09 267.05 116.17 268.46 117.26 C 268.73 116.70 269.27 115.60 269.54 115.05 C 269.46 115.66 269.29 116.88 269.21 117.48 C 270.13 118.24 271.06 119.00 271.98 119.77 C 272.98 120.63 273.97 121.50 274.94 122.40 C 275.80 122.62 276.66 122.84 277.52 123.07 C 278.33 125.29 280.63 126.33 282.70 127.12 C 284.18 128.06 285.70 129.03 287.56 128.91 C 287.35 129.42 286.93 130.43 286.72 130.94 L 289.01 130.90 C 288.88 131.19 288.61 131.79 288.48 132.08 C 291.18 133.33 293.70 134.93 296.35 136.27 C 298.46 140.18 303.14 141.01 306.26 143.82 C 305.99 144.22 305.45 145.03 305.18 145.43 C 305.70 145.08 306.74 144.39 307.26 144.04 L 307.69 146.08 C 309.09 146.83 310.41 147.73 311.52 148.88 C 312.55 149.28 313.60 149.68 314.66 150.08 C 314.36 150.48 313.78 151.27 313.49 151.67 C 315.28 152.71 317.00 153.86 318.69 155.09 C 318.51 154.26 318.13 152.59 317.95 151.75 C 318.67 153.00 319.50 154.23 319.80 155.67 C 321.52 156.90 323.28 158.12 325.20 159.03 C 326.55 160.14 327.94 161.24 329.57 161.93 L 329.41 162.65 L 330.59 162.48 C 330.63 163.07 330.71 164.24 330.75 164.83 C 329.46 164.77 328.17 164.72 326.89 164.67 C 324.02 164.99 320.96 166.37 318.15 165.17 C 317.89 165.48 317.37 166.09 317.12 166.39 C 313.72 166.71 310.33 166.43 306.94 166.32 C 307.79 168.79 310.00 168.88 312.14 168.95 C 310.72 169.19 309.29 169.40 307.86 169.59 C 308.16 171.64 308.38 173.71 308.55 175.78 L 309.83 175.24 C 309.59 176.99 309.49 178.82 308.35 180.29 C 308.71 180.72 309.43 181.59 309.79 182.03 C 308.87 182.45 307.95 182.87 307.04 183.30 C 307.82 183.30 309.39 183.29 310.17 183.29 C 310.19 184.12 310.25 185.78 310.27 186.61 C 309.13 185.98 307.97 185.38 306.80 184.81 C 308.16 186.41 309.65 187.86 311.15 189.36 L 307.56 188.23 C 308.05 188.66 309.03 189.52 309.52 189.94 C 308.92 191.01 306.58 191.92 307.29 193.28 C 309.21 194.87 306.68 195.77 305.78 196.88 C 305.79 197.30 305.81 198.15 305.82 198.58 C 306.29 198.71 307.23 198.97 307.71 199.10 C 306.00 200.03 305.27 201.61 305.27 203.48 C 304.99 203.65 304.45 204.00 304.17 204.17 C 305.08 204.40 306.89 204.84 307.80 205.06 C 306.99 206.31 305.94 207.37 305.13 208.61 C 305.48 209.26 306.19 210.55 306.54 211.19 C 306.21 211.74 305.54 212.82 305.20 213.36 C 305.53 213.74 306.17 214.52 306.49 214.90 C 305.66 215.62 304.84 216.33 304.01 217.05 C 304.82 217.15 306.43 217.37 307.24 217.47 C 307.32 216.81 307.49 215.48 307.57 214.82 C 307.65 215.60 307.72 216.39 307.77 217.18 C 305.98 218.28 304.31 219.54 302.64 220.81 C 303.44 220.53 305.04 219.97 305.84 219.69 C 305.55 221.52 305.31 223.40 306.45 225.00 C 303.01 224.92 304.73 227.84 305.73 229.55 L 304.02 229.63 C 304.38 230.47 305.09 232.14 305.45 232.98 L 303.92 232.58 C 303.44 234.80 302.77 236.98 302.23 239.19 C 301.62 238.92 300.41 238.40 299.81 238.13 C 300.39 238.60 301.56 239.55 302.14 240.03 C 301.60 240.45 300.51 241.28 299.96 241.70 L 301.60 242.28 C 301.27 242.67 300.60 243.44 300.27 243.82 C 301.58 243.24 302.86 242.65 304.21 242.13 C 303.09 244.09 301.58 245.77 300.23 247.55 C 300.53 247.90 301.12 248.58 301.42 248.92 L 301.45 249.53 C 302.09 250.84 302.49 252.22 302.65 253.69 C 302.04 253.63 300.82 253.52 300.21 253.47 C 302.07 256.52 301.98 260.09 301.51 263.51 L 300.26 263.30 C 300.88 265.68 301.42 268.08 301.71 270.53 L 300.19 270.50 C 300.26 270.87 300.40 271.63 300.48 272.00 C 299.93 272.36 298.83 273.07 298.28 273.42 C 298.82 274.73 299.63 275.90 300.38 277.10 C 300.45 278.26 300.52 279.43 300.58 280.60 C 302.31 280.90 304.05 281.14 305.80 281.30 L 306.54 280.38 C 305.79 282.46 303.38 281.54 301.73 281.84 C 302.14 282.32 302.96 283.27 303.38 283.74 L 302.11 284.18 C 302.29 285.27 302.47 286.37 302.65 287.47 C 302.17 287.78 301.19 288.38 300.71 288.68 C 300.67 290.80 300.65 292.92 300.71 295.04 C 300.13 295.99 299.55 296.94 298.99 297.91 C 299.15 298.59 299.48 299.96 299.64 300.65 C 299.42 304.04 298.03 307.22 297.80 310.62 C 297.51 310.53 296.92 310.34 296.63 310.25 C 296.87 311.65 297.05 313.04 297.25 314.46 C 295.81 313.91 294.37 313.30 293.19 312.28 C 293.61 313.06 294.43 314.61 294.85 315.38 C 293.89 314.61 291.97 313.07 291.02 312.30 C 291.28 312.72 291.80 313.56 292.06 313.98 C 287.65 316.35 282.08 314.80 278.05 317.81 L 280.69 317.50 C 280.64 318.02 280.53 319.06 280.48 319.59 C 279.88 320.28 279.27 320.97 278.66 321.66 L 279.42 320.52 C 278.48 320.57 276.60 320.68 275.66 320.73 L 276.49 321.41 L 275.28 320.46 C 277.08 320.26 278.98 320.03 280.29 318.62 C 279.09 318.68 276.69 318.80 275.49 318.86 C 275.66 318.33 276.00 317.28 276.17 316.75 C 274.63 317.85 273.08 318.95 271.56 320.07 C 270.48 319.17 269.40 318.30 268.32 317.43 C 265.80 318.23 263.18 318.56 260.56 318.82 C 258.56 318.31 256.56 317.77 254.51 317.52 C 253.83 317.34 252.45 316.96 251.76 316.77 L 252.74 318.57 C 251.74 318.80 249.76 319.26 248.76 319.49 C 249.36 318.96 250.55 317.90 251.14 317.37 C 250.77 316.94 250.41 316.51 250.04 316.08 C 248.87 316.71 247.64 317.21 246.35 317.56 C 246.33 318.04 246.28 318.99 246.26 319.47 C 243.99 317.77 240.89 317.54 238.22 318.25 C 238.19 319.08 238.27 319.90 238.47 320.72 L 238.15 321.04 C 236.98 322.29 235.89 323.62 234.95 325.06 C 234.50 325.29 234.04 325.52 233.59 325.76 C 233.70 325.30 233.92 324.37 234.02 323.90 L 234.18 323.04 C 234.85 322.25 235.78 321.80 236.95 321.70 C 236.70 321.02 236.22 319.65 235.98 318.96 C 234.25 316.18 236.80 312.71 234.78 310.01 C 236.49 305.77 234.16 301.42 234.38 297.08 C 235.62 295.27 235.51 293.02 235.84 290.96 C 235.73 290.62 235.51 289.96 235.40 289.63 C 235.80 288.55 235.84 287.48 235.50 286.40 C 234.39 283.03 234.96 279.47 234.85 276.00 C 236.23 270.49 234.33 264.75 234.74 259.12 C 235.71 255.37 235.59 251.34 234.95 247.54 C 235.45 247.20 236.45 246.52 236.95 246.18 C 236.05 245.20 235.16 244.22 234.29 243.23 C 234.99 242.27 235.68 241.32 236.37 240.37 C 235.53 238.77 235.26 236.99 235.11 235.22 C 236.49 233.54 238.87 231.49 236.36 229.59 C 236.83 224.97 238.78 220.62 238.75 215.95 C 238.83 212.20 238.55 208.47 238.42 204.73 C 237.92 204.45 236.94 203.87 236.44 203.58 C 236.04 203.63 235.22 203.72 234.82 203.77 C 232.82 203.45 230.77 203.57 228.99 204.59 C 228.33 204.54 227.01 204.44 226.35 204.39 C 222.83 205.71 218.94 205.81 215.27 205.12 C 213.29 205.49 211.29 205.58 209.58 204.37 C 209.31 204.59 208.77 205.03 208.49 205.25 C 204.50 204.49 200.38 204.74 196.56 206.15 C 196.60 205.46 196.68 204.07 196.72 203.37 C 193.93 205.17 190.22 204.44 187.24 205.99 C 187.36 205.19 187.59 203.60 187.71 202.80 C 187.54 203.25 187.20 204.13 187.03 204.57 C 185.73 204.49 184.44 204.41 183.15 204.34 C 183.20 205.07 183.30 206.53 183.35 207.27 C 182.96 206.02 182.62 204.74 182.28 203.48 C 179.76 204.00 177.28 204.68 174.83 205.47 C 175.41 205.71 176.58 206.21 177.17 206.46 C 175.74 206.51 174.31 206.60 172.88 206.71 C 172.75 206.28 172.50 205.42 172.37 204.99 C 171.67 205.49 170.26 206.47 169.56 206.97 C 168.84 206.59 168.13 206.20 167.42 205.82 C 167.63 211.94 166.84 218.21 168.59 224.17 C 168.96 227.24 168.06 230.37 168.92 233.42 C 170.54 238.19 168.24 243.03 168.87 247.89 C 171.48 258.43 170.34 269.33 170.56 280.07 C 170.26 284.70 170.56 289.35 171.80 293.84 C 172.76 296.60 171.32 299.45 172.11 302.26 C 173.07 306.49 172.25 310.81 172.25 315.09 C 171.88 316.28 171.53 317.49 171.22 318.71 C 164.02 319.04 156.72 318.12 149.60 319.51 C 149.32 320.81 149.03 322.11 148.73 323.41 C 148.61 321.97 148.55 320.52 148.47 319.09 C 146.65 319.29 144.81 319.55 142.98 319.26 L 142.67 320.58 C 142.37 320.27 141.76 319.65 141.46 319.34 C 140.81 319.62 139.51 320.16 138.86 320.43 C 138.65 319.42 138.43 318.42 138.21 317.42 C 137.01 318.23 135.64 318.56 134.21 318.58 C 133.87 318.96 133.18 319.72 132.84 320.11 C 131.66 319.59 130.48 319.09 129.32 318.57 C 128.18 318.90 127.05 319.23 125.92 319.55 C 125.89 318.90 125.83 317.60 125.81 316.95 C 124.99 319.33 122.74 320.09 120.55 318.98 C 120.49 319.51 120.38 320.58 120.32 321.11 C 119.90 320.42 119.48 319.73 119.07 319.04 C 116.42 319.83 113.81 318.91 111.23 318.36 C 111.38 317.97 111.69 317.19 111.84 316.80 C 109.50 316.79 106.76 315.51 104.86 317.49 C 104.60 315.46 104.16 313.45 103.67 311.47 C 103.92 311.16 104.43 310.54 104.68 310.24 C 103.87 309.57 103.34 308.45 102.27 308.18 C 101.91 308.61 101.18 309.47 100.82 309.90 C 101.17 308.22 101.99 306.82 103.43 305.85 C 103.36 300.81 99.34 295.71 102.60 290.86 C 102.10 290.75 101.10 290.52 100.60 290.41 C 101.53 287.97 100.21 286.38 98.01 285.59 C 98.40 285.65 99.18 285.78 99.57 285.85 C 99.41 283.96 99.75 282.10 99.69 280.23 C 99.35 279.99 98.68 279.50 98.34 279.25 C 98.36 279.02 98.39 278.54 98.41 278.30 L 98.65 277.63 C 98.83 275.96 99.70 274.59 101.01 273.58 C 100.25 273.90 98.71 274.54 97.94 274.86 C 98.62 273.21 99.27 271.58 99.93 269.94 C 99.56 269.85 98.83 269.69 98.46 269.61 C 98.63 268.83 98.95 267.27 99.11 266.49 C 98.63 267.12 97.66 268.39 97.18 269.02 C 97.13 268.31 97.05 266.88 97.01 266.16 C 96.37 266.13 95.10 266.07 94.46 266.04 C 95.50 265.06 96.55 264.11 97.62 263.19 C 96.97 262.43 96.31 261.67 95.67 260.91 C 95.38 259.09 95.03 257.28 94.70 255.47 C 95.26 255.43 96.39 255.34 96.95 255.30 C 96.52 255.07 95.65 254.61 95.22 254.39 C 94.95 252.96 94.72 251.52 94.59 250.08 L 93.36 249.68 C 93.80 249.40 94.69 248.83 95.13 248.54 C 94.75 248.31 93.99 247.84 93.60 247.61 C 93.90 247.38 94.51 246.91 94.81 246.68 C 94.71 246.38 94.51 245.79 94.41 245.49 C 94.35 244.21 94.21 242.94 94.06 241.68 C 94.61 241.67 95.70 241.64 96.25 241.62 C 94.94 241.44 93.63 241.26 92.31 241.10 C 93.15 240.12 94.00 239.16 94.87 238.21 C 94.58 238.04 94.01 237.69 93.73 237.52 C 93.27 236.50 92.69 235.55 92.32 234.51 C 93.18 232.26 94.28 229.58 92.69 227.36 C 92.41 225.73 92.19 224.09 92.23 222.43 C 92.42 220.39 93.27 218.27 92.29 216.31 C 92.57 214.02 93.07 211.77 93.58 209.53 C 93.05 208.43 92.55 207.32 92.10 206.19 L 91.16 206.24 C 91.42 205.66 91.93 204.51 92.19 203.93 C 91.08 203.42 89.96 202.93 88.86 202.41 C 88.47 200.89 87.70 199.46 87.56 197.89 C 88.58 199.73 89.62 201.59 91.19 203.03 C 90.95 200.71 90.43 198.44 89.60 196.27 L 91.26 196.52 C 90.75 195.71 89.74 194.10 89.24 193.29 C 89.70 193.25 90.62 193.19 91.08 193.15 C 89.83 192.21 89.26 190.91 89.43 189.36 L 88.17 189.07 C 88.46 188.46 89.03 187.25 89.32 186.64 L 86.52 188.24 C 87.07 187.31 88.18 185.45 88.74 184.51 C 88.75 179.86 88.46 175.17 87.21 170.66 C 87.73 170.46 88.78 170.04 89.30 169.84 C 80.47 169.69 71.64 169.29 62.88 168.15 C 65.88 166.72 68.76 165.05 71.24 162.80 C 72.28 163.05 73.29 163.41 74.34 163.66 L 71.81 162.41 C 76.06 159.71 81.15 158.47 85.04 155.20 C 87.02 153.50 89.29 152.14 91.83 151.44 C 91.54 151.25 90.95 150.86 90.66 150.67 C 92.59 148.76 94.32 146.57 96.77 145.27 L 96.82 144.18 C 97.09 144.24 97.64 144.34 97.91 144.40 C 98.25 142.30 99.98 143.23 101.37 143.72 C 101.32 143.33 101.22 142.54 101.16 142.15 L 102.45 142.68 C 102.55 141.97 102.74 140.55 102.84 139.84 C 103.34 139.92 104.35 140.09 104.85 140.18 C 105.94 139.60 107.04 139.06 108.14 138.52 C 107.35 138.43 105.76 138.25 104.96 138.16 C 107.63 136.42 111.51 137.46 113.31 134.28 C 113.83 134.42 114.87 134.71 115.39 134.85 C 115.38 134.15 115.36 132.75 115.35 132.05 C 115.92 132.47 117.07 133.29 117.64 133.70 C 117.55 133.35 117.37 132.64 117.29 132.29 C 119.97 130.84 121.48 128.21 122.85 125.62 C 122.70 126.25 122.39 127.51 122.24 128.14 C 122.70 128.02 123.62 127.79 124.08 127.68 C 124.31 126.15 125.32 125.25 126.78 124.86 C 128.28 124.30 129.52 123.28 130.90 122.50 L 131.11 122.66 C 132.52 120.08 135.52 119.41 138.00 118.27 C 137.80 117.94 137.39 117.28 137.19 116.95 C 138.56 116.36 139.85 115.61 141.10 114.79 C 142.75 114.36 143.55 113.01 144.00 111.47 C 144.47 111.55 145.42 111.71 145.90 111.79 C 145.73 111.17 145.41 109.93 145.25 109.31 C 145.67 109.38 146.52 109.51 146.95 109.58 C 149.05 107.19 152.97 107.62 154.52 104.46 C 152.28 105.45 150.10 106.59 147.90 107.66 C 147.94 106.63 148.02 104.58 148.07 103.55 C 148.43 103.67 149.15 103.91 149.51 104.03 C 149.89 103.18 150.65 101.50 151.03 100.66 C 151.29 101.33 151.80 102.67 152.05 103.34 C 152.23 102.84 152.59 101.84 152.77 101.34 C 153.37 100.87 154.56 99.92 155.16 99.45 C 157.41 98.09 161.27 98.20 161.77 95.08 C 162.29 94.93 163.32 94.64 163.84 94.50 C 164.04 93.96 164.44 92.90 164.64 92.37 C 165.36 92.43 166.80 92.53 167.52 92.58 L 166.33 90.04 L 169.01 91.79 C 168.83 91.29 168.46 90.29 168.27 89.79 C 170.35 89.61 172.32 88.91 174.25 88.14 C 174.31 87.53 174.44 86.30 174.50 85.68 C 175.40 85.74 177.20 85.85 178.10 85.91 C 177.78 85.44 177.13 84.50 176.81 84.03 C 177.26 84.20 178.15 84.53 178.59 84.70 C 179.73 83.91 180.87 83.11 182.00 82.31 L 182.67 84.49 C 182.98 83.45 183.28 82.40 183.57 81.35 C 184.20 81.61 185.47 82.13 186.10 82.39 C 186.27 81.36 186.61 79.28 186.78 78.24 C 187.26 78.71 188.23 79.64 188.71 80.10 L 188.21 78.72 C 189.63 77.99 191.01 77.20 192.37 76.37 C 192.79 76.60 193.63 77.06 194.05 77.29 L 191.97 73.95 L 194.81 76.05 Z" />
<path fill="#2b2b2b" d=" M 205.78 113.92 C 205.71 115.26 205.64 116.60 205.57 117.94 C 207.22 117.77 208.85 117.52 210.50 117.25 C 209.63 116.82 207.89 115.96 207.02 115.53 L 207.06 114.48 C 208.58 115.33 210.12 116.17 211.63 117.04 C 212.56 116.12 213.47 115.16 214.48 114.32 C 214.74 116.30 215.85 119.11 217.92 116.62 C 218.35 116.92 219.21 117.52 219.63 117.82 C 219.57 118.32 219.43 119.33 219.36 119.83 C 221.14 118.68 223.01 117.68 224.78 116.52 C 224.76 117.08 224.71 118.19 224.69 118.74 C 225.70 118.05 226.72 117.35 227.74 116.64 C 229.02 117.21 230.32 117.72 231.63 118.24 C 233.30 118.21 234.97 118.24 236.65 118.33 C 235.74 119.39 234.57 119.79 233.17 119.54 C 233.22 120.11 233.34 121.23 233.39 121.79 C 232.86 122.54 232.54 123.38 232.46 124.31 C 232.70 124.45 233.19 124.75 233.43 124.89 C 232.25 122.87 234.26 121.25 235.43 119.85 C 235.53 122.89 235.73 125.95 236.66 128.88 C 236.31 128.78 235.61 128.58 235.26 128.49 C 235.38 130.06 235.53 131.63 235.78 133.19 C 234.94 135.17 234.21 137.19 233.54 139.23 C 233.71 140.59 236.04 141.29 233.88 142.97 L 234.92 143.04 C 234.75 144.58 234.60 146.14 234.48 147.69 L 232.96 147.33 C 233.13 148.15 233.47 149.80 233.65 150.62 C 234.21 150.55 235.34 150.41 235.91 150.34 C 235.54 150.75 234.80 151.56 234.43 151.96 C 234.32 156.16 234.11 160.37 234.35 164.57 C 234.70 164.55 235.40 164.51 235.75 164.49 C 234.90 169.10 234.07 173.74 234.46 178.44 C 232.02 178.40 229.57 178.29 227.20 177.68 C 227.65 178.90 228.11 180.11 228.58 181.33 C 224.72 179.82 220.66 180.56 216.67 180.76 C 213.14 179.91 209.32 181.63 206.10 179.53 C 205.72 179.79 204.97 180.29 204.59 180.54 L 204.56 179.64 C 201.96 180.23 199.31 180.04 196.73 179.49 C 194.48 179.70 192.21 179.82 189.96 179.74 C 190.13 178.48 190.75 177.93 191.82 178.10 L 192.41 178.56 L 193.25 178.91 C 193.24 178.57 193.23 177.90 193.23 177.56 C 194.22 177.32 195.22 177.06 196.21 176.79 C 192.59 175.98 187.90 176.28 185.74 179.75 C 182.08 180.51 178.41 179.95 174.86 178.98 C 174.86 179.60 174.86 180.82 174.86 181.44 C 174.25 180.64 173.64 179.83 173.04 179.03 C 171.09 179.26 169.13 179.48 167.19 179.75 C 167.38 179.26 167.76 178.28 167.95 177.80 C 166.78 179.59 164.92 180.61 163.10 181.63 C 164.26 180.24 165.34 178.79 166.42 177.33 C 166.46 174.72 165.92 172.17 164.73 169.86 C 165.56 167.41 166.35 164.95 167.17 162.50 C 166.72 162.63 165.84 162.91 165.40 163.04 C 167.65 159.84 165.26 155.57 166.39 151.90 C 165.99 151.43 165.19 150.50 164.78 150.03 C 165.79 150.04 167.80 150.06 168.81 150.07 C 167.67 149.42 166.47 148.97 165.18 148.72 C 165.23 147.44 165.26 146.17 165.28 144.90 C 165.53 144.88 166.03 144.85 166.27 144.83 C 166.27 143.54 166.30 142.26 166.36 140.99 L 165.32 141.48 C 165.48 139.44 164.66 137.13 166.42 135.46 L 164.21 136.66 C 164.87 131.25 165.39 125.89 165.40 120.43 C 166.75 119.80 168.10 119.16 169.45 118.51 C 168.82 118.54 167.57 118.59 166.95 118.62 C 167.00 118.02 167.10 116.82 167.16 116.22 C 168.92 116.35 170.69 116.42 172.46 116.39 C 173.20 116.84 174.68 117.73 175.43 118.17 C 175.54 117.56 175.78 116.34 175.90 115.72 C 176.47 116.59 177.63 118.33 178.20 119.20 C 177.84 115.16 181.81 116.99 184.08 116.64 C 184.20 117.31 184.44 118.65 184.56 119.32 C 184.59 118.35 184.64 116.40 184.67 115.43 C 185.89 117.06 187.06 118.73 188.33 120.33 L 187.78 117.71 C 188.98 117.04 190.16 116.33 191.37 115.67 C 191.38 116.33 191.39 117.64 191.39 118.30 C 193.37 115.83 196.76 116.61 199.47 115.93 L 196.52 118.83 L 200.53 117.45 L 200.04 116.33 C 200.69 116.12 201.98 115.70 202.63 115.49 C 202.99 116.00 203.72 117.02 204.08 117.53 C 204.50 116.63 205.35 114.82 205.78 113.92 Z" />
<path fill="#2b2b2b" d=" M 187.28 116.41 C 187.90 117.06 187.90 117.06 187.28 116.41 Z" />
<path fill="#ffffff" d=" M 191.95 126.36 C 193.41 128.28 195.39 127.60 197.13 126.50 C 197.43 127.43 197.78 128.33 198.18 129.21 C 198.99 129.16 200.62 129.05 201.43 129.00 C 201.10 128.45 200.44 127.33 200.10 126.78 C 201.61 127.74 203.45 128.43 204.15 130.24 C 206.46 131.41 208.94 130.90 211.34 130.36 C 211.50 131.51 211.71 132.66 211.92 133.80 C 212.75 132.08 214.09 130.88 215.95 130.20 L 214.94 132.71 C 216.55 134.37 216.94 134.05 216.14 131.74 C 218.08 132.37 220.02 133.04 221.99 133.65 C 221.99 134.05 222.00 134.85 222.01 135.26 C 222.51 135.29 223.52 135.36 224.03 135.39 C 223.55 135.52 222.60 135.76 222.12 135.88 C 222.04 140.23 222.19 144.59 221.97 148.94 L 223.40 149.11 C 223.06 149.40 222.37 149.99 222.03 150.28 C 222.02 153.61 222.02 156.95 221.78 160.28 C 223.60 160.80 225.47 161.15 227.35 161.44 C 225.73 161.42 224.12 161.42 222.51 161.49 C 222.34 162.18 221.98 163.54 221.81 164.22 L 219.11 165.93 L 223.30 165.74 C 221.65 166.12 219.97 166.34 218.29 166.59 C 218.44 166.06 218.74 165.00 218.88 164.47 C 216.97 165.05 215.07 165.66 213.19 166.31 L 213.19 164.56 C 211.82 164.84 210.46 165.12 209.09 165.41 C 209.28 164.80 209.65 163.57 209.84 162.96 C 208.71 164.07 207.57 165.16 206.41 166.24 C 206.58 165.52 206.92 164.10 207.08 163.38 C 205.81 163.48 204.54 163.56 203.26 163.62 L 204.56 164.75 C 203.45 164.72 201.23 164.68 200.12 164.65 C 200.17 164.40 200.26 163.90 200.30 163.65 C 198.07 164.15 195.79 164.39 193.53 164.72 C 193.02 164.70 191.99 164.65 191.47 164.63 L 191.18 162.48 C 190.80 163.98 190.88 165.49 191.60 166.92 L 186.76 166.29 C 187.33 165.85 188.47 164.97 189.04 164.53 C 185.71 165.46 182.12 164.88 178.89 166.19 C 178.86 165.45 178.79 163.99 178.76 163.26 L 176.85 163.16 C 177.27 162.68 178.13 161.72 178.56 161.24 C 178.18 160.93 177.43 160.31 177.06 159.99 C 177.30 159.42 177.77 158.26 178.00 157.69 C 178.97 156.39 178.92 155.13 177.86 153.90 C 178.31 154.01 179.22 154.24 179.68 154.35 C 176.02 153.20 176.65 148.14 178.73 145.71 C 178.20 145.54 177.13 145.20 176.60 145.03 C 177.18 144.65 178.34 143.89 178.93 143.51 C 178.42 142.21 177.93 140.90 177.42 139.61 C 177.64 137.76 177.73 135.87 178.57 134.17 C 178.32 134.08 177.82 133.89 177.56 133.80 C 178.40 132.60 178.86 131.07 180.00 130.12 C 181.65 130.17 183.27 130.53 184.92 130.67 C 185.17 130.04 185.67 128.77 185.92 128.13 C 186.25 129.03 186.59 129.92 186.93 130.82 C 188.13 130.69 189.33 130.58 190.53 130.49 L 190.32 129.23 C 192.43 129.83 194.56 130.69 196.80 130.07 C 195.51 129.24 194.04 128.84 192.61 128.39 C 192.45 127.88 192.12 126.87 191.95 126.36 Z" />
<path fill="#2b2b2b" d=" M 360.24 161.24 C 360.83 161.80 360.83 161.80 360.24 161.24 Z" />
<path fill="#ffffff" d=" M 195.70 225.55 C 199.31 224.64 202.99 224.17 206.72 224.21 C 209.09 223.84 211.48 223.08 213.86 223.88 C 217.81 225.47 222.39 223.08 226.01 225.74 C 225.03 226.80 224.06 227.87 223.08 228.94 C 222.56 228.87 221.51 228.74 220.98 228.67 C 221.58 229.39 222.79 230.83 223.39 231.55 C 222.56 231.54 220.90 231.52 220.07 231.51 C 221.88 232.43 223.72 233.41 224.33 235.54 C 223.55 235.48 221.99 235.37 221.21 235.31 C 221.45 236.65 221.68 237.99 221.90 239.33 C 221.33 239.39 220.20 239.50 219.63 239.55 L 221.62 239.85 C 221.59 240.61 221.54 242.13 221.52 242.89 C 220.66 243.92 220.48 245.25 220.15 246.50 L 221.65 246.52 C 221.54 247.40 221.32 249.17 221.21 250.06 C 220.86 250.40 220.17 251.08 219.82 251.42 C 220.53 251.44 221.94 251.48 222.65 251.50 C 220.51 253.59 220.13 256.17 221.21 258.88 C 220.10 262.59 220.57 266.46 220.32 270.27 C 221.04 270.28 222.48 270.31 223.21 270.32 L 223.67 271.40 C 222.55 271.38 220.31 271.32 219.19 271.29 C 220.99 271.82 221.26 273.58 221.80 275.01 C 221.27 275.26 220.21 275.75 219.68 276.00 C 219.25 280.26 219.46 284.64 220.81 288.73 C 220.15 288.77 218.82 288.85 218.15 288.89 C 218.48 289.02 219.12 289.30 219.44 289.43 C 218.57 291.84 218.85 294.35 219.54 296.76 C 219.34 296.73 218.94 296.68 218.74 296.65 C 219.33 298.72 219.35 300.87 219.25 303.01 C 219.24 303.80 219.23 305.37 219.22 306.15 C 220.27 306.25 221.32 306.34 222.38 306.42 C 221.15 307.04 218.67 308.27 217.44 308.89 L 221.33 308.10 L 221.18 310.38 C 220.51 310.33 219.18 310.22 218.51 310.17 C 218.59 311.71 218.64 313.26 218.61 314.81 C 219.20 315.15 220.38 315.82 220.97 316.16 C 220.32 316.26 219.02 316.45 218.37 316.55 C 218.38 317.32 218.39 318.85 218.40 319.62 C 217.98 319.06 217.14 317.95 216.72 317.39 C 213.98 318.89 210.79 318.81 207.81 319.40 C 207.90 318.62 208.08 317.08 208.17 316.31 C 207.86 317.25 207.23 319.12 206.92 320.06 C 206.32 318.90 205.82 317.70 205.35 316.49 C 205.05 316.42 204.46 316.27 204.16 316.20 C 204.40 316.76 205.72 318.62 204.37 318.54 C 203.07 318.09 201.83 318.64 200.71 319.25 C 200.15 318.05 199.28 317.16 198.09 316.58 C 198.51 317.32 199.36 318.80 199.78 319.54 C 198.81 319.41 196.88 319.17 195.92 319.05 C 195.88 318.45 195.81 317.25 195.78 316.66 C 195.26 317.86 194.74 319.08 194.23 320.30 C 194.86 320.38 196.11 320.56 196.74 320.65 C 196.23 321.54 195.72 322.43 195.22 323.33 C 195.38 322.68 195.71 321.37 195.87 320.72 C 195.13 320.69 193.64 320.63 192.90 320.60 C 193.32 320.30 194.16 319.68 194.58 319.37 C 194.28 318.97 193.68 318.17 193.38 317.77 C 192.98 318.31 192.18 319.40 191.78 319.94 C 191.70 319.28 191.56 317.97 191.48 317.32 C 191.13 317.44 190.41 317.67 190.05 317.79 C 189.85 317.23 189.45 316.11 189.24 315.56 C 189.35 316.33 189.57 317.87 189.68 318.65 C 188.01 318.65 186.34 318.66 184.68 318.66 C 182.88 313.87 184.85 308.72 184.08 303.73 C 182.46 301.75 183.54 299.13 183.30 296.86 L 184.62 297.52 C 184.64 295.63 184.67 293.74 184.79 291.85 L 182.61 293.17 C 184.30 289.36 183.18 285.37 182.18 281.56 C 182.66 281.40 183.63 281.08 184.11 280.92 C 183.48 280.82 182.20 280.63 181.57 280.53 C 183.20 276.45 182.49 271.94 181.06 267.91 C 181.46 265.26 181.21 262.56 180.37 260.01 L 182.65 260.92 C 182.31 258.97 182.21 256.99 182.76 255.07 C 182.25 255.22 181.25 255.52 180.75 255.67 C 180.66 255.11 180.49 254.00 180.41 253.45 C 179.61 253.48 178.00 253.56 177.20 253.60 C 177.08 251.24 178.64 249.95 180.59 249.10 C 180.55 247.86 180.52 246.62 180.50 245.38 L 178.72 245.85 C 179.04 245.28 179.67 244.14 179.99 243.57 C 179.23 242.27 178.50 240.97 177.78 239.66 L 179.50 239.65 C 181.14 236.85 180.34 233.82 178.99 231.10 C 179.58 229.83 179.31 228.50 178.88 227.24 C 179.36 226.84 180.32 226.03 180.79 225.63 C 184.88 225.44 188.98 225.25 193.04 224.69 C 193.70 224.90 195.03 225.34 195.70 225.55 Z" />
<path fill="#2b2b2b" d=" M 271.16 317.24 C 271.80 317.77 271.80 317.77 271.16 317.24 Z" />
</svg>
