<svg width="400pt" height="400pt" viewBox="0 0 400 400" xmlns="http://www.w3.org/2000/svg">
  <path fill="#408000" d="M184.13 46.74c1.01-.78 2.01-1.56 2.99-2.37l-.43 2.07c1.61-.2 3.42-2.99 5.06-1.34-.94.85-1.99 1.58-2.92 2.45 2.18 1.06 4.68.88 7.03 1.14-.14-.43-.41-1.29-.54-1.73.35.37 1.07 1.09 1.42 1.46.21-.36.63-1.07.84-1.42.42 1.29.83 2.58 1.24 3.87.54-.24 1.64-.71 2.18-.95l-.83 1.72c.8-.19 2.42-.57 3.22-.75-.07.4-.23 1.21-.3 1.61 2.52-.18 2.68 1.37 2.02 3.38l.92-1.04c2.81 2.26 6.71 1.02 9.6 2.95.44-.21 1.32-.65 1.76-.86-.53 1.04-1.07 2.08-1.62 3.11 2.05.83 6.01.48 6.43 3.06l-.12.85c-.47 2.93-1.94-.93-2.93-1.64.6 1.2 1.19 2.4 1.77 3.61l1.78-.36.35-.63c-.13-2.84 1.87-.59 2.97.15l.73.56-1.44 2.25 4.01-1.16c-.57.62-1.72 1.87-2.3 2.49 1.71.84 3.64-.06 5.33.84l-1.28 2.66c1.31-.58 2.63-1.15 3.95-1.72-.53.54-1.57 1.63-2.09 2.17 1.71.32 3.41.74 5.1 1.19.14.68.42 2.04.56 2.73.51-.25 1.53-.73 2.04-.98l-.52 1.98 1.75-1.2.42 1.53c-.82.04-2.44.11-3.26.15.07.24.22.72.29.97 1.88-.15 3.76-.23 5.64-.36l.48 1.36c.91-.56 1.84-1.12 2.76-1.68-.28.36-.84 1.07-1.13 1.43.17.61.5 1.84.66 2.46.68-.71 1.36-1.42 2.04-2.14l-1.23 2.26 3.53-.09c-.79.11-2.37.32-3.16.43 2.23 1.59 4.55 3.05 6.91 4.46l-.36-2.9c.47 2.36 2.77 5.67 5.43 3.29-.65.63-1.33 1.26-2.08 1.78l-.04 3.11c.5-.46 1.51-1.38 2.02-1.84 1.14.78 2.36 1.44 3.71 1.81l-.7 1.4c.99.05 1.99.09 2.99.13l-2.05 1.77c2.04-.8 3.28.42 4.33 1.85 1.25.12 2.49.29 3.73.5-.3.77-.63 1.53-.99 2.28 1.3.27 2.59.57 3.88.9.54-.17 1.09-.35 1.65-.52.46 1 .92 1.99 1.39 2.98 2.57-.35 4.59.71 5.8 2.98l1.59-1.4c-.02 1.18-.05 2.36-.06 3.54.66-.27 1.98-.8 2.64-1.06-.14.44-.44 1.34-.59 1.79.87.11 2.62.34 3.49.46.67 1.03 1.33 2.07 2 3.1.6.01 1.8.01 2.4.01.32 1.94 1.99 2.16 3.68 2.22-.01.63-.01 1.89-.01 2.51 1.48.1 2.96.2 4.45.29-.24.45-.73 1.35-.97 1.8 1.87.34 3.73.71 5.62 1l-.59 1.51c.69-.12 2.09-.34 2.79-.45.44 1.3.55 2.68.67 4.05 1.69.7 3.36 1.43 5.05 2.14l-.52 2.6c2.19.32 5.46.27 6.03 3.03 3.2.98 4.27 4.89 7.8 5.51.59.89 1.18 1.79 1.77 2.69 1.74-.22 3.51-.32 2.94 2.12.67-.01 2.01-.04 2.68-.06l.04 1.11c1.86 1.28 3.65 3.91 5.96 1.86-.08 1.14-.11 2.27-.11 3.41l-1.36.76c.95-.19 2.84-.56 3.78-.74l-.57 1.9c.4-.15 1.21-.44 1.61-.59 2.49 2.88 6.53 4.03 8.42 7.47 3.55 1.49 5.02 5.56 6.78 8.72l1.17-.6c.14 2.06-.23 4.1-.76 6.08-2.58.14-5.4.32-7.47-1.54.56 2.06 3.96 7.03-1.5 2.97l-.24 2.78c-.79-.32-2.38-.96-3.18-1.27-.19.41-.58 1.25-.78 1.66-2.28-.03-4.59.64-6.84.26 1.56-1.19.87-2.78.08-4.37-.54 1.46-.8 3.74-2.81 3.84-3.89.27-7.82.83-11.69.16l-.96 2.28c-1.7-.67-5.26 2.82-1.28 1.36.42.46 1.24 1.37 1.66 1.83-.64-.2-1.92-.6-2.56-.81l.08 1.91c.61-.03 1.84-.1 2.46-.13-1.8 1.61-1.02 4.02-1.34 6.11l.72-.02c-.16 1.45-.25 2.91-.34 4.38-1.19-.29-2.37-.56-3.56-.82.12 1.11.24 2.23.37 3.34.4-.31 1.19-.93 1.58-1.24l1.07 2.78c.29 1.32.63 2.63.79 3.98-.78.06-2.35.19-3.14.25.77.84 1.55 1.67 2.34 2.5-1.63 4.07-.88 8.66-2.15 12.87l-1.64-1.16 1.04 4.29 2.41.24c-.57.19-1.73.56-2.31.74.16.45.46 1.34.61 1.78-.58-.04-1.74-.14-2.33-.18l-1.87 2.31c.91.17 2.73.52 3.64.69l-1.86.95c.44.99.87 1.98 1.32 2.98-1.79.72-3.14 2.1-.75 3.33-.27 1.52-.51 3.04-.78 4.56-.75-1.28-1.53-2.54-2.33-3.78.51 1.24 1.06 2.48 1.7 3.68.07.79.16 1.58.26 2.37-.75 2.09-1.51 4.19-2.89 5.97l1.68-.52c1.76 1.97 1.54 4.48-.27 6.34l1.99-.08c-.5.59-1.49 1.79-1.98 2.39l.44 2.09c-3.31.5-.2 1.91.39 2.95-.37.49-1.09 1.48-1.45 1.98l1.51.08c-.2.71-.61 2.12-.82 2.83-1.9-.79-4.89-2.33-6.18.19.8 1.66 3.1.09 4.3-.41.61 1.73 2.56 3.18 1.93 5.19-.7-.41-2.1-1.25-2.8-1.67.98.85 2.01 1.63 2.96 2.55-.23 1.14-.49 2.29-.78 3.43-.74.08-2.22.26-2.97.34.82.04 2.45.11 3.27.15-.03 2.22-.2 4.47-1.02 6.57.24.79.71 2.37.95 3.16l-1.48-.38c.81 3.01-2.97 5.48 1.05 7.95l-2.24-.65c.94 1.06 1.85 2.11 2.78 3.19-.93.06-2.8.19-3.74.25 1.15.3 2.3.58 3.46.83-.3.72-.91 2.15-1.22 2.86.91.77 1.89 1.47 2.96 2-.81 1.15-1.7 2.24-2.43 3.45l-.97-.43c-.06.28-.19.84-.25 1.12.48-.14 1.45-.43 1.93-.58.35 2.54.51 5.11.75 7.66-.53-.46-1.6-1.4-2.14-1.87.32 1.35.65 2.7 1 4.05l-1.67 1.31c.43.34 1.3 1.01 1.73 1.35-.61 3.14.05 6.25.39 9.37-.39 2.49-.59 5-.35 7.52-1.71.01-3.42.07-5.13.11l.12 1.05c-4.31.09-8.62.11-12.92.09-1.19.97-2.39 1.94-3.59 2.9.12-.78.37-2.33.49-3.11-1.49.16-3.11 1.66-4.53.35-2.36-.33-4.77-.91-7.15-.49-1.74.2-3.7 1.07-5.12-.44l-1.25.08c-.25-.53-.73-1.58-.97-2.1 0 .6.02 1.81.03 2.42l-2.46-.97c.12.56.36 1.68.48 2.23-1.01-.05-2-.09-3-.12-.97-.51-1.95-1.01-2.93-1.48-.07.81-.21 2.45-.27 3.27-.41-1.21-.78-2.45-1.1-3.67-2.23 1.74-5.06 1.06-7.65 1.11l-.87-2.76c-.09.68-.25 2.02-.33 2.7-3.16-.06-6.32-.13-9.46.16-1.83.55-3.72.79-5.61 1.03l.4-1.02c-1.69-.06-3.4-.23-4.84-1.19l.9 1.36c-.89-.06-2.66-.19-3.55-.25l.28-2.35c-.36.74-1.09 2.21-1.45 2.94-1.05-1.42-1.39-3.14-1.54-4.85-.78.15-2.35.44-3.13.59.58.32 1.75.95 2.34 1.26.13.69.41 2.05.55 2.73-.54-.44-1.61-1.33-2.15-1.78l.64 1.81c-2.08-.37-4.19-.65-6.17-1.42-.28.31-.84.92-1.13 1.22l-1.92-1.63c-.03.65-.08 1.95-.11 2.6-1.43-.88-3.08-1.76-3.73-3.45-.3 1.1-.89 3.32-1.19 4.43-.38-.72-.75-1.44-1.09-2.17-4.85-.05-9.81.57-14.48-1.06-.89.72-1.74 1.49-2.65 2.19-.23-.58-.69-1.75-.93-2.33-.52.23-1.58.69-2.11.92-.95-.35-1.9-.69-2.85-1.01l.13-1.33c-.89.42-2.66 1.28-3.54 1.71-.16.26-.47.79-.63 1.06-.3-.92-.91-2.76-1.22-3.68-.57.88-1.71 2.63-2.27 3.51-.11-.56-.33-1.68-.44-2.23-3.31.96-6.74 1.38-10.18 1.1l.25 1.08c-4.19-.42-8.4-.06-12.59.06-8.79-.04-17.73-1.06-26.4.8.28-1.08.55-2.16.86-3.22-.52.14-1.55.44-2.07.58-.05.46-.14 1.38-.18 1.84-2.94.19-5.84.73-8.7 1.41.51-1.84-.38-4.18-2.57-3.24-.1.49-.3 1.47-.4 1.95-.29.42-.86 1.27-1.15 1.69-.44.37-1.34 1.12-1.78 1.5-.09-.76-.26-2.28-.35-3.03-.29.41-.86 1.24-1.14 1.66-.88-.88-1.79-1.74-2.69-2.59.04.36.14 1.09.18 1.45-2.27.46-4.51 1.04-6.74 1.67-3.98.77-8.05.23-12.02-.28-.39 2.08-1.86 1.84-3.26 1.05-4.86-.4-9.75-.49-14.62-.52-.34-5.4-.39-10.8-.19-16.19-.45-4.06.82-8.08-.13-12.11 1.52-1.29 3.01-2.63 4.41-4.05-1.53 1.14-3 2.36-4.49 3.57.51-2.78.84-5.58 1.03-8.39l-1.16.59c-.58-1.89-1.08-3.81-1.6-5.71.72-2.72.68-5.82-1.5-7.89.75-.37 1.52-.72 2.29-1.04l.11-1.1c-1.28-.39-2.17-1.36-3.14-2.2.11-4.31-.3-8.61-.18-12.91-.62-2.87-.89-5.85-2.1-8.55l1.32.46c-.14-.98-.41-2.94-.55-3.93.48.54 1.45 1.6 1.93 2.13.73-1.88 1.04-5.2-1.14-6.1l-1.73.4c.41.67 1.22 2.03 1.63 2.7-.25-.14-.75-.42-1-.57-.41-.9-.78-1.82-1.12-2.74.3-.23.9-.68 1.2-.9a9.162 9.162 0 0 0-.94-2.95c.53.51 1.58 1.52 2.11 2.02l-.08-3.29-3.21.2c.72-.25 2.17-.74 2.9-.99l.11-1.09-1.86.25c.45-.44 1.37-1.31 1.82-1.74-1.06-1.93-1.92-3.95-2.79-5.96l1.41-.33c-.75-1.25-1.49-2.5-2.23-3.75.8.06 2.39.17 3.19.22-.85-.26-1.69-.51-2.54-.76-.39-1.29-.81-2.57-1.27-3.84-.04-2.15 0-4.3.19-6.45l-2.28.76c.51-.7 1.52-2.09 2.02-2.78l1.63-.24c-1.21-.29-2.41-.72-3.67-.57.3-4.85-.11-9.74-.97-14.52.35-.5 1.04-1.51 1.39-2.02-.39-.18-1.18-.53-1.57-.71.46-.49 1.37-1.45 1.83-1.94l-2.13-.48c.38-2.03.9-4.03 1.57-5.98l-2.76 2.55c.41-1.18.85-2.36 1.32-3.51-.44.05-1.33.16-1.78.21.51-1.52.98-3.05 1.43-4.58l-1.83.49-.2-2.77-1.58 1.88.4-3.09c.7.62 1.41 1.22 2.13 1.81l.96-1.82-.6-.95c-.52-.12-1.55-.36-2.06-.48.64-.49 1.92-1.47 2.56-1.95l-3.41.12c.44-.78 1.33-2.33 1.77-3.1-2.95 2.47-6.83.65-10.14.54 1.86-1.61 4.39-1.44 6.66-1.86-1.91-.12-3.83-.05-5.74.09-.71 1.56-2.38 2.9-4.25 2.05.02-1.09.03-2.18.16-3.26-.75.78-1.56 1.54-2.18 2.44.87.44 1.73.88 2.58 1.35-2.09-.01-4.15.33-6.19.73l-.28 2.75c-1.57.27-3.15.52-4.72.76.09-.4.27-1.2.36-1.61-2.89-.16-5.63-1.58-8.56-1.04.77-1.13.92-2.51 1.16-3.82-.61-.13-1.85-.41-2.47-.54.15-.59.45-1.75.61-2.33-.36-.07-1.07-.2-1.43-.27l.41-1.37-1.44.37c.52-1.84.61-3.94 1.88-5.46 1.92-2.19 3.57-4.6 5.16-7.03 2.37.18 4.75.23 7.13.11-1.56-.73-3.11-1.46-4.66-2.18 1.77-.93 3.5-1.93 5.25-2.88.81-1.42 2.39-1.75 3.85-2.1-.14-.46-.43-1.39-.57-1.86.52.11 1.54.32 2.05.43l.1-1.16c.34.02 1.01.04 1.35.05 1.89-3.19 4.86-5.76 8.82-5.16-.18-.78-.36-1.55-.54-2.32 1.37-.42 2.69-1 3.83-1.9.33-.45.99-1.36 1.32-1.81 2.31.93 3.59-1.31 5.42-2.17l-.62-.46c2.94-1.57 5.22-4 7.44-6.42.57-.08 1.72-.25 2.29-.33-.15-.36-.44-1.1-.59-1.47 1.55-.9 3.17-1.71 4.99-1.88.04-.36.13-1.08.17-1.44.56.08 1.67.26 2.23.34-.14-.46-.41-1.37-.54-1.83.94-.54 1.88-1.09 2.81-1.64 1.55-1.37 2.99-3.41 5.32-2.26-.88-.44-4.37-2.66-.76-2.05.73-.29 2.19-.86 2.93-1.14-.28-.24-.82-.7-1.09-.94a34.21 34.21 0 0 0 2.35-3.6l1.64-.36c.78-1.2 1.99-1.96 3.27-2.53l-.25-.91 1.47.63c.06-.73.17-2.21.22-2.94.92.46 2.76 1.39 3.67 1.86l-1.32-2.27c1.42-.98 2.8-2.01 4.16-3.07.21.11.64.35.86.47.87-1.18 1.9-2.25 3.27-2.82.44-1.25 1.13-2.34 2.39-2.86 1.02 1.32 2.09 2.61 3.19 3.86l.24-.36c-.69-.83-2.07-2.5-2.76-3.33l3.3 1.65c-1.15-1.11-3.84-2.06-1.68-4.21l-2.42.92c2.6-1.04 5.39-5.14 8.07-2.37-.12-.6-.38-1.82-.51-2.42.75.1 2.24.31 2.99.41-.21-.74-.64-2.21-.85-2.95 1.84-.01 3.67-.04 5.51 0-.71-.32-2.15-.95-2.86-1.27 2-.84 4.32-3.02 6.13-.53-.03-.57-.1-1.71-.13-2.28.99-.11 1.98-.22 2.97-.35-.82-.37-2.48-1.11-3.3-1.48 3.89.57 5.61-3.51 8.97-4.73l2.59-1.72 1.52 1.16-.32-3.7c.69.55 2.07 1.63 2.76 2.18l.32-2.44c.55-.02 1.67-.08 2.22-.1-.57-.62-1.73-1.84-2.31-2.46 1.4-1.2 3.13-1.26 4.85-.86-.18-.68-.56-2.03-.75-2.71 1.63.06 3.26.1 4.89.12-.49-.44-1.47-1.3-1.97-1.74 1.89-.39 3-1.95 4.11-3.37-.04.51-.11 1.53-.15 2.04l1.33-.14c0-.53.01-1.6.01-2.14l1.95.7c-.19-.65-.56-1.95-.74-2.6.61-.05 1.83-.14 2.44-.19-.08-.31-.23-.93-.3-1.24 1.41-.68 2.82-1.38 4.21-2.1.55-2.16 2.78-2.13 4.51-2.64-.29-.43-.87-1.31-1.16-1.75 1.32-.58 2.66-1.14 4-1.67l-.44-.81c1.14-.65 2.28-1.29 3.44-1.91-.38-.78-.76-1.57-1.12-2.36 1.01-.08 3.04-.23 4.06-.3l-.72-2.29Z"/>
  <path fill="#fff" d="m194.81 76.05 1.27-1.95c.07.67.19 2.03.26 2.7l3.07-.24c0-.55-.01-1.66-.01-2.21 1.93 1.45 4.09 2.14 6.48 2.08l-2.07 1.34c.59.22 1.77.67 2.37.89.92.61 1.88 1.18 2.86 1.71l.3 1.88c.28-.58.84-1.73 1.13-2.3-.9 2.75 2.21 3.28 3.93 4.45.63-.16 1.9-.49 2.53-.65-.15.35-.46 1.04-.61 1.38 1.46-.04 2.42.64 2.86 2.04 1.86.41 4.39-.37 5.42 1.82-.65.17-1.93.51-2.57.69 1.39-.06 2.79-.12 4.19-.16.59 1.17 1.21 2.34 1.81 3.51l1.56.76-1.67-2.55c2.34 2.2 5.17 2.93 8.22 2.14-.8.26-2.4.76-3.2 1.01 1.68.62 3.34 1.36 5.1 1.75.81-.71 1.6-1.45 2.37-2.21-.81 1.2-1.65 2.39-2.46 3.59 4.81 1.75 9.74 3.48 13.63 6.93-.02.14-.08.41-.11.55 1.83.77 3.31 2.1 4.89 3.27 1.78-.83 3.09-2.39 4.68-3.53-1.05 1.13-2.17 2.18-3.27 3.25.43.78 1.3 2.35 1.74 3.13 1.62.91 3.22 1.85 4.85 2.74 1.29 1.23 2.69 2.31 4.1 3.4.27-.56.81-1.66 1.08-2.21-.08.61-.25 1.83-.33 2.43.92.76 1.85 1.52 2.77 2.29 1 .86 1.99 1.73 2.96 2.63.86.22 1.72.44 2.58.67.81 2.22 3.11 3.26 5.18 4.05 1.48.94 3 1.91 4.86 1.79l-.84 2.03 2.29-.04-.53 1.18c2.7 1.25 5.22 2.85 7.87 4.19 2.11 3.91 6.79 4.74 9.91 7.55-.27.4-.81 1.21-1.08 1.61.52-.35 1.56-1.04 2.08-1.39l.43 2.04c1.4.75 2.72 1.65 3.83 2.8 1.03.4 2.08.8 3.14 1.2-.3.4-.88 1.19-1.17 1.59 1.79 1.04 3.51 2.19 5.2 3.42-.18-.83-.56-2.5-.74-3.34.72 1.25 1.55 2.48 1.85 3.92 1.72 1.23 3.48 2.45 5.4 3.36 1.35 1.11 2.74 2.21 4.37 2.9l-.16.72 1.18-.17.16 2.35c-1.29-.06-2.58-.11-3.86-.16-2.87.32-5.93 1.7-8.74.5-.26.31-.78.92-1.03 1.22-3.4.32-6.79.04-10.18-.07.85 2.47 3.06 2.56 5.2 2.63-1.42.24-2.85.45-4.28.64.3 2.05.52 4.12.69 6.19l1.28-.54c-.24 1.75-.34 3.58-1.48 5.05.36.43 1.08 1.3 1.44 1.74-.92.42-1.84.84-2.75 1.27.78 0 2.35-.01 3.13-.01.02.83.08 2.49.1 3.32-1.14-.63-2.3-1.23-3.47-1.8 1.36 1.6 2.85 3.05 4.35 4.55l-3.59-1.13c.49.43 1.47 1.29 1.96 1.71-.6 1.07-2.94 1.98-2.23 3.34 1.92 1.59-.61 2.49-1.51 3.6l.04 1.7c.47.13 1.41.39 1.89.52-1.71.93-2.44 2.51-2.44 4.38-.28.17-.82.52-1.1.69.91.23 2.72.67 3.63.89-.81 1.25-1.86 2.31-2.67 3.55.35.65 1.06 1.94 1.41 2.58-.33.55-1 1.63-1.34 2.17.33.38.97 1.16 1.29 1.54l-2.48 2.15c.81.1 2.42.32 3.23.42.08-.66.25-1.99.33-2.65.08.78.15 1.57.2 2.36-1.79 1.1-3.46 2.36-5.13 3.63l3.2-1.12c-.29 1.83-.53 3.71.61 5.31-3.44-.08-1.72 2.84-.72 4.55l-1.71.08c.36.84 1.07 2.51 1.43 3.35l-1.53-.4c-.48 2.22-1.15 4.4-1.69 6.61-.61-.27-1.82-.79-2.42-1.06.58.47 1.75 1.42 2.33 1.9-.54.42-1.63 1.25-2.18 1.67l1.64.58c-.33.39-1 1.16-1.33 1.54 1.31-.58 2.59-1.17 3.94-1.69-1.12 1.96-2.63 3.64-3.98 5.42.3.35.89 1.03 1.19 1.37l.03.61c.64 1.31 1.04 2.69 1.2 4.16-.61-.06-1.83-.17-2.44-.22 1.86 3.05 1.77 6.62 1.3 10.04l-1.25-.21c.62 2.38 1.16 4.78 1.45 7.23l-1.52-.03c.07.37.21 1.13.29 1.5-.55.36-1.65 1.07-2.2 1.42.54 1.31 1.35 2.48 2.1 3.68.07 1.16.14 2.33.2 3.5 1.73.3 3.47.54 5.22.7l.74-.92c-.75 2.08-3.16 1.16-4.81 1.46.41.48 1.23 1.43 1.65 1.9l-1.27.44c.18 1.09.36 2.19.54 3.29-.48.31-1.46.91-1.94 1.21-.04 2.12-.06 4.24 0 6.36-.58.95-1.16 1.9-1.72 2.87.16.68.49 2.05.65 2.74-.22 3.39-1.61 6.57-1.84 9.97-.29-.09-.88-.28-1.17-.37.24 1.4.42 2.79.62 4.21-1.44-.55-2.88-1.16-4.06-2.18.42.78 1.24 2.33 1.66 3.1-.96-.77-2.88-2.31-3.83-3.08l1.04 1.68c-4.41 2.37-9.98.82-14.01 3.83l2.64-.31c-.05.52-.16 1.56-.21 2.09-.6.69-1.21 1.38-1.82 2.07l.76-1.14c-.94.05-2.82.16-3.76.21l.83.68-1.21-.95c1.8-.2 3.7-.43 5.01-1.84l-4.8.24.68-2.11c-1.54 1.1-3.09 2.2-4.61 3.32-1.08-.9-2.16-1.77-3.24-2.64-2.52.8-5.14 1.13-7.76 1.39-2-.51-4-1.05-6.05-1.3-.68-.18-2.06-.56-2.75-.75l.98 1.8c-1 .23-2.98.69-3.98.92.6-.53 1.79-1.59 2.38-2.12-.37-.43-.73-.86-1.1-1.29-1.17.63-2.4 1.13-3.69 1.48-.02.48-.07 1.43-.09 1.91-2.27-1.7-5.37-1.93-8.04-1.22-.03.83.05 1.65.25 2.47l-.32.32c-1.17 1.25-2.26 2.58-3.2 4.02-.45.23-.91.46-1.36.7.11-.46.33-1.39.43-1.86l.16-.86c.67-.79 1.6-1.24 2.77-1.34-.25-.68-.73-2.05-.97-2.74-1.73-2.78.82-6.25-1.2-8.95 1.71-4.24-.62-8.59-.4-12.93 1.24-1.81 1.13-4.06 1.46-6.12-.11-.34-.33-1-.44-1.33.4-1.08.44-2.15.1-3.23-1.11-3.37-.54-6.93-.65-10.4 1.38-5.51-.52-11.25-.11-16.88.97-3.75.85-7.78.21-11.58l2-1.36c-.9-.98-1.79-1.96-2.66-2.95.7-.96 1.39-1.91 2.08-2.86-.84-1.6-1.11-3.38-1.26-5.15 1.38-1.68 3.76-3.73 1.25-5.63.47-4.62 2.42-8.97 2.39-13.64.08-3.75-.2-7.48-.33-11.22-.5-.28-1.48-.86-1.98-1.15-.4.05-1.22.14-1.62.19-2-.32-4.05-.2-5.83.82l-2.64-.2c-3.52 1.32-7.41 1.42-11.08.73-1.98.37-3.98.46-5.69-.75-.27.22-.81.66-1.09.88-3.99-.76-8.11-.51-11.93.9l.16-2.78c-2.79 1.8-6.5 1.07-9.48 2.62.12-.8.35-2.39.47-3.19-.17.45-.51 1.33-.68 1.77-1.3-.08-2.59-.16-3.88-.23l.2 2.93c-.39-1.25-.73-2.53-1.07-3.79-2.52.52-5 1.2-7.45 1.99.58.24 1.75.74 2.34.99-1.43.05-2.86.14-4.29.25-.13-.43-.38-1.29-.51-1.72-.7.5-2.11 1.48-2.81 1.98-.72-.38-1.43-.77-2.14-1.15.21 6.12-.58 12.39 1.17 18.35.37 3.07-.53 6.2.33 9.25 1.62 4.77-.68 9.61-.05 14.47 2.61 10.54 1.47 21.44 1.69 32.18-.3 4.63 0 9.28 1.24 13.77.96 2.76-.48 5.61.31 8.42.96 4.23.14 8.55.14 12.83-.37 1.19-.72 2.4-1.03 3.62-7.2.33-14.5-.59-21.62.8-.28 1.3-.57 2.6-.87 3.9-.12-1.44-.18-2.89-.26-4.32-1.82.2-3.66.46-5.49.17l-.31 1.32c-.3-.31-.91-.93-1.21-1.24-.65.28-1.95.82-2.6 1.09-.21-1.01-.43-2.01-.65-3.01-1.2.81-2.57 1.14-4 1.16-.34.38-1.03 1.14-1.37 1.53-1.18-.52-2.36-1.02-3.52-1.54-1.14.33-2.27.66-3.4.98-.03-.65-.09-1.95-.11-2.6-.82 2.38-3.07 3.14-5.26 2.03-.06.53-.17 1.6-.23 2.13-.42-.69-.84-1.38-1.25-2.07-2.65.79-5.26-.13-7.84-.68.15-.39.46-1.17.61-1.56-2.34-.01-5.08-1.29-6.98.69-.26-2.03-.7-4.04-1.19-6.02.25-.31.76-.93 1.01-1.23-.81-.67-1.34-1.79-2.41-2.06-.36.43-1.09 1.29-1.45 1.72.35-1.68 1.17-3.08 2.61-4.05-.07-5.04-4.09-10.14-.83-14.99-.5-.11-1.5-.34-2-.45.93-2.44-.39-4.03-2.59-4.82.39.06 1.17.19 1.56.26-.16-1.89.18-3.75.12-5.62-.34-.24-1.01-.73-1.35-.98.02-.23.05-.71.07-.95l.24-.67c.18-1.67 1.05-3.04 2.36-4.05-.76.32-2.3.96-3.07 1.28.68-1.65 1.33-3.28 1.99-4.92-.37-.09-1.1-.25-1.47-.33.17-.78.49-2.34.65-3.12l-1.93 2.53c-.05-.71-.13-2.14-.17-2.86l-2.55-.12a93.38 93.38 0 0 1 3.16-2.85c-.65-.76-1.31-1.52-1.95-2.28-.29-1.82-.64-3.63-.97-5.44.56-.04 1.69-.13 2.25-.17-.43-.23-1.3-.69-1.73-.91-.27-1.43-.5-2.87-.63-4.31l-1.23-.4c.44-.28 1.33-.85 1.77-1.14-.38-.23-1.14-.7-1.53-.93l1.21-.93-.4-1.19c-.06-1.28-.2-2.55-.35-3.81.55-.01 1.64-.04 2.19-.06-1.31-.18-2.62-.36-3.94-.52.84-.98 1.69-1.94 2.56-2.89-.29-.17-.86-.52-1.14-.69-.46-1.02-1.04-1.97-1.41-3.01.86-2.25 1.96-4.93.37-7.15-.28-1.63-.5-3.27-.46-4.93.19-2.04 1.04-4.16.06-6.12.28-2.29.78-4.54 1.29-6.78-.53-1.1-1.03-2.21-1.48-3.34l-.94.05c.26-.58.77-1.73 1.03-2.31-1.11-.51-2.23-1-3.33-1.52-.39-1.52-1.16-2.95-1.3-4.52 1.02 1.84 2.06 3.7 3.63 5.14-.24-2.32-.76-4.59-1.59-6.76l1.66.25c-.51-.81-1.52-2.42-2.02-3.23.46-.04 1.38-.1 1.84-.14-1.25-.94-1.82-2.24-1.65-3.79l-1.26-.29c.29-.61.86-1.82 1.15-2.43l-2.8 1.6c.55-.93 1.66-2.79 2.22-3.73.01-4.65-.28-9.34-1.53-13.85.52-.2 1.57-.62 2.09-.82-8.83-.15-17.66-.55-26.42-1.69 3-1.43 5.88-3.1 8.36-5.35 1.04.25 2.05.61 3.1.86l-2.53-1.25c4.25-2.7 9.34-3.94 13.23-7.21 1.98-1.7 4.25-3.06 6.79-3.76l-1.17-.77c1.93-1.91 3.66-4.1 6.11-5.4l.05-1.09c.27.06.82.16 1.09.22.34-2.1 2.07-1.17 3.46-.68-.05-.39-.15-1.18-.21-1.57l1.29.53c.1-.71.29-2.13.39-2.84.5.08 1.51.25 2.01.34 1.09-.58 2.19-1.12 3.29-1.66l-3.18-.36c2.67-1.74 6.55-.7 8.35-3.88.52.14 1.56.43 2.08.57l-.04-2.8c.57.42 1.72 1.24 2.29 1.65-.09-.35-.27-1.06-.35-1.41 2.68-1.45 4.19-4.08 5.56-6.67-.15.63-.46 1.89-.61 2.52.46-.12 1.38-.35 1.84-.46.23-1.53 1.24-2.43 2.7-2.82 1.5-.56 2.74-1.58 4.12-2.36l.21.16c1.41-2.58 4.41-3.25 6.89-4.39-.2-.33-.61-.99-.81-1.32 1.37-.59 2.66-1.34 3.91-2.16 1.65-.43 2.45-1.78 2.9-3.32l1.9.32c-.17-.62-.49-1.86-.65-2.48.42.07 1.27.2 1.7.27 2.1-2.39 6.02-1.96 7.57-5.12-2.24.99-4.42 2.13-6.62 3.2.04-1.03.12-3.08.17-4.11l1.44.48c.38-.85 1.14-2.53 1.52-3.37.26.67.77 2.01 1.02 2.68l.72-2c.6-.47 1.79-1.42 2.39-1.89 2.25-1.36 6.11-1.25 6.61-4.37.52-.15 1.55-.44 2.07-.58.2-.54.6-1.6.8-2.13.72.06 2.16.16 2.88.21l-1.19-2.54 2.68 1.75c-.18-.5-.55-1.5-.74-2 2.08-.18 4.05-.88 5.98-1.65.06-.61.19-1.84.25-2.46.9.06 2.7.17 3.6.23-.32-.47-.97-1.41-1.29-1.88.45.17 1.34.5 1.78.67 1.14-.79 2.28-1.59 3.41-2.39l.67 2.18c.31-1.04.61-2.09.9-3.14l2.53 1.04c.17-1.03.51-3.11.68-4.15.48.47 1.45 1.4 1.93 1.86l-.5-1.38c1.42-.73 2.8-1.52 4.16-2.35l1.68.92-2.08-3.34 2.84 2.1Z"/>
  <path fill="#408000" d="m205.78 113.92-.21 4.02c1.65-.17 3.28-.42 4.93-.69l-3.48-1.72.04-1.05c1.52.85 3.06 1.69 4.57 2.56.93-.92 1.84-1.88 2.85-2.72.26 1.98 1.37 4.79 3.44 2.3.43.3 1.29.9 1.71 1.2-.06.5-.2 1.51-.27 2.01 1.78-1.15 3.65-2.15 5.42-3.31-.02.56-.07 1.67-.09 2.22 1.01-.69 2.03-1.39 3.05-2.1 1.28.57 2.58 1.08 3.89 1.6 1.67-.03 3.34 0 5.02.09-.91 1.06-2.08 1.46-3.48 1.21.05.57.17 1.69.22 2.25-.53.75-.85 1.59-.93 2.52.24.14.73.44.97.58-1.18-2.02.83-3.64 2-5.04.1 3.04.3 6.1 1.23 9.03-.35-.1-1.05-.3-1.4-.39.12 1.57.27 3.14.52 4.7-.84 1.98-1.57 4-2.24 6.04.17 1.36 2.5 2.06.34 3.74l1.04.07c-.17 1.54-.32 3.1-.44 4.65l-1.52-.36c.17.82.51 2.47.69 3.29l2.26-.28c-.37.41-1.11 1.22-1.48 1.62-.11 4.2-.32 8.41-.08 12.61l1.4-.08c-.85 4.61-1.68 9.25-1.29 13.95-2.44-.04-4.89-.15-7.26-.76.45 1.22.91 2.43 1.38 3.65-3.86-1.51-7.92-.77-11.91-.57-3.53-.85-7.35.87-10.57-1.23-.38.26-1.13.76-1.51 1.01l-.03-.9c-2.6.59-5.25.4-7.83-.15-2.25.21-4.52.33-6.77.25.17-1.26.79-1.81 1.86-1.64l.59.46.84.35c-.01-.34-.02-1.01-.02-1.35.99-.24 1.99-.5 2.98-.77-3.62-.81-8.31-.51-10.47 2.96-3.66.76-7.33.2-10.88-.77v2.46c-.61-.8-1.22-1.61-1.82-2.41-1.95.23-3.91.45-5.85.72.19-.49.57-1.47.76-1.95-1.17 1.79-3.03 2.81-4.85 3.83 1.16-1.39 2.24-2.84 3.32-4.3.04-2.61-.5-5.16-1.69-7.47.83-2.45 1.62-4.91 2.44-7.36-.45.13-1.33.41-1.77.54 2.25-3.2-.14-7.47.99-11.14-.4-.47-1.2-1.4-1.61-1.87l4.03.04c-1.14-.65-2.34-1.1-3.63-1.35.05-1.28.08-2.55.1-3.82.25-.02.75-.05.99-.07 0-1.29.03-2.57.09-3.84l-1.04.49c.16-2.04-.66-4.35 1.1-6.02l-2.21 1.2c.66-5.41 1.18-10.77 1.19-16.23 1.35-.63 2.7-1.27 4.05-1.92-.63.03-1.88.08-2.5.11.05-.6.15-1.8.21-2.4 1.76.13 3.53.2 5.3.17.74.45 2.22 1.34 2.97 1.78.11-.61.35-1.83.47-2.45.57.87 1.73 2.61 2.3 3.48-.36-4.04 3.61-2.21 5.88-2.56l.48 2.68c.03-.97.08-2.92.11-3.89 1.22 1.63 2.39 3.3 3.66 4.9l-.55-2.62c1.2-.67 2.38-1.38 3.59-2.04.01.66.02 1.97.02 2.63 1.98-2.47 5.37-1.69 8.08-2.37l-2.95 2.9 4.01-1.38-.49-1.12 2.59-.84c.36.51 1.09 1.53 1.45 2.04.42-.9 1.27-2.71 1.7-3.61ZM187.28 116.41c.62.65.62.65 0 0Z"/>
  <path fill="#fff" d="M191.95 126.36c1.46 1.92 3.44 1.24 5.18.14.3.93.65 1.83 1.05 2.71.81-.05 2.44-.16 3.25-.21-.33-.55-.99-1.67-1.33-2.22 1.51.96 3.35 1.65 4.05 3.46 2.31 1.17 4.79.66 7.19.12.16 1.15.37 2.3.58 3.44.83-1.72 2.17-2.92 4.03-3.6l-1.01 2.51c1.61 1.66 2 1.34 1.2-.97 1.94.63 3.88 1.3 5.85 1.91 0 .4.01 1.2.02 1.61.5.03 1.51.1 2.02.13-.48.13-1.43.37-1.91.49-.08 4.35.07 8.71-.15 13.06l1.43.17-1.37 1.17c-.01 3.33-.01 6.67-.25 10 1.82.52 3.69.87 5.57 1.16-1.62-.02-3.23-.02-4.84.05-.17.69-.53 2.05-.7 2.73l-2.7 1.71 4.19-.19c-1.65.38-3.33.6-5.01.85.15-.53.45-1.59.59-2.12-1.91.58-3.81 1.19-5.69 1.84v-1.75c-1.37.28-2.73.56-4.1.85.19-.61.56-1.84.75-2.45-1.13 1.11-2.27 2.2-3.43 3.28.17-.72.51-2.14.67-2.86-1.27.1-2.54.18-3.82.24l1.3 1.13c-1.11-.03-3.33-.07-4.44-.1.05-.25.14-.75.18-1-2.23.5-4.51.74-6.77 1.07-.51-.02-1.54-.07-2.06-.09l-.29-2.15c-.38 1.5-.3 3.01.42 4.44l-4.84-.63 2.28-1.76c-3.33.93-6.92.35-10.15 1.66-.03-.74-.1-2.2-.13-2.93l-1.91-.1c.42-.48 1.28-1.44 1.71-1.92-.38-.31-1.13-.93-1.5-1.25.24-.57.71-1.73.94-2.3.97-1.3.92-2.56-.14-3.79.45.11 1.36.34 1.82.45-3.66-1.15-3.03-6.21-.95-8.64l-2.13-.68c.58-.38 1.74-1.14 2.33-1.52-.51-1.3-1-2.61-1.51-3.9.22-1.85.31-3.74 1.15-5.44-.25-.09-.75-.28-1.01-.37.84-1.2 1.3-2.73 2.44-3.68 1.65.05 3.27.41 4.92.55.25-.63.75-1.9 1-2.54.33.9.67 1.79 1.01 2.69 1.2-.13 2.4-.24 3.6-.33l-.21-1.26c2.11.6 4.24 1.46 6.48.84-1.29-.83-2.76-1.23-4.19-1.68-.16-.51-.49-1.52-.66-2.03Z"/>
  <path fill="#408000" d="M360.24 161.24c.59.56.59.56 0 0Z"/>
  <path fill="#fff" d="M195.7 225.55c3.61-.91 7.29-1.38 11.02-1.34 2.37-.37 4.76-1.13 7.14-.33 3.95 1.59 8.53-.8 12.15 1.86-.98 1.06-1.95 2.13-2.93 3.2-.52-.07-1.57-.2-2.1-.27.6.72 1.81 2.16 2.41 2.88l-3.32-.04c1.81.92 3.65 1.9 4.26 4.03-.78-.06-2.34-.17-3.12-.23.24 1.34.47 2.68.69 4.02-.57.06-1.7.17-2.27.22l1.99.3c-.03.76-.08 2.28-.1 3.04-.86 1.03-1.04 2.36-1.37 3.61l1.5.02-.44 3.54c-.35.34-1.04 1.02-1.39 1.36l2.83.08c-2.14 2.09-2.52 4.67-1.44 7.38-1.11 3.71-.64 7.58-.89 11.39.72.01 2.16.04 2.89.05l.46 1.08c-1.12-.02-3.36-.08-4.48-.11 1.8.53 2.07 2.29 2.61 3.72-.53.25-1.59.74-2.12.99-.43 4.26-.22 8.64 1.13 12.73l-2.66.16c.33.13.97.41 1.29.54-.87 2.41-.59 4.92.1 7.33-.2-.03-.6-.08-.8-.11.59 2.07.61 4.22.51 6.36-.01.79-.02 2.36-.03 3.14 1.05.1 2.1.19 3.16.27-1.23.62-3.71 1.85-4.94 2.47l3.89-.79-.15 2.28c-.67-.05-2-.16-2.67-.21.08 1.54.13 3.09.1 4.64.59.34 1.77 1.01 2.36 1.35-.65.1-1.95.29-2.6.39.01.77.02 2.3.03 3.07-.42-.56-1.26-1.67-1.68-2.23-2.74 1.5-5.93 1.42-8.91 2.01l.36-3.09c-.31.94-.94 2.81-1.25 3.75-.6-1.16-1.1-2.36-1.57-3.57-.3-.07-.89-.22-1.19-.29.24.56 1.56 2.42.21 2.34-1.3-.45-2.54.1-3.66.71a5.443 5.443 0 0 0-2.62-2.67c.42.74 1.27 2.22 1.69 2.96-.97-.13-2.9-.37-3.86-.49-.04-.6-.11-1.8-.14-2.39-.52 1.2-1.04 2.42-1.55 3.64.63.08 1.88.26 2.51.35-.51.89-1.02 1.78-1.52 2.68.16-.65.49-1.96.65-2.61l-2.97-.12c.42-.3 1.26-.92 1.68-1.23l-1.2-1.6c-.4.54-1.2 1.63-1.6 2.17-.08-.66-.22-1.97-.3-2.62-.35.12-1.07.35-1.43.47-.2-.56-.6-1.68-.81-2.23.11.77.33 2.31.44 3.09-1.67 0-3.34.01-5 .01-1.8-4.79.17-9.94-.6-14.93-1.62-1.98-.54-4.6-.78-6.87l1.32.66c.02-1.89.05-3.78.17-5.67l-2.18 1.32c1.69-3.81.57-7.8-.43-11.61l1.93-.64c-.63-.1-1.91-.29-2.54-.39 1.63-4.08.92-8.59-.51-12.62.4-2.65.15-5.35-.69-7.9l2.28.91c-.34-1.95-.44-3.93.11-5.85-.51.15-1.51.45-2.01.6-.09-.56-.26-1.67-.34-2.22-.8.03-2.41.11-3.21.15-.12-2.36 1.44-3.65 3.39-4.5-.04-1.24-.07-2.48-.09-3.72l-1.78.47c.32-.57.95-1.71 1.27-2.28-.76-1.3-1.49-2.6-2.21-3.91l1.72-.01c1.64-2.8.84-5.83-.51-8.55.59-1.27.32-2.6-.11-3.86.48-.4 1.44-1.21 1.91-1.61 4.09-.19 8.19-.38 12.25-.94.66.21 1.99.65 2.66.86Z"/>
  <path fill="#408000" d="M271.16 317.24c.64.53.64.53 0 0Z"/>
</svg>
